<?xml version="1.0" encoding="UTF-8"?>
<svg id="Layer_2" data-name="Layer 2" xmlns="http://www.w3.org/2000/svg" viewBox="0 0 229.47 252.48">
  <defs>
    <style>
      .cls-1 {
        fill: #6d6e7a;
      }

      .cls-1, .cls-2, .cls-3 {
        stroke-width: 0px;
      }

      .cls-2 {
        fill: #9696a0;
      }

      .cls-3 {
        fill: #b4b4bc;
      }
    </style>
  </defs>
  <g id="Layer_1-2" data-name="Layer 1">
    <path class="cls-1" d="M11.89,26.26h205.69c4.76,0,8.63,3.87,8.63,8.63v205.69c0,4.76-3.87,8.63-8.63,8.63H11.89c-4.76,0-8.63-3.87-8.63-8.63V34.9c0-4.76,3.87-8.63,8.63-8.63Z"/>
    <path class="cls-3" d="M217.58,29.52c2.96,0,5.38,2.41,5.38,5.38v205.69c0,2.96-2.41,5.38-5.38,5.38H11.89c-2.96,0-5.38-2.41-5.38-5.38V34.9c0-2.96,2.41-5.38,5.38-5.38h205.69M217.58,23.01H11.89c-6.56,0-11.89,5.33-11.89,11.89v205.69c0,6.56,5.33,11.89,11.89,11.89h205.69c6.56,0,11.89-5.33,11.89-11.89V34.9c0-6.56-5.33-11.89-11.89-11.89h0Z"/>
    <rect class="cls-3" x="33.08" y="0" width="163.31" height="29.52" rx="4.07" ry="4.07"/>
    <path class="cls-2" d="M114.29,3.75l-47.91,16.6c-1.46.51-1.09,2.66.45,2.66h95.81c1.54,0,1.91-2.16.45-2.66L115.18,3.75c-.29-.1-.61-.1-.9,0Z"/>
    <rect class="cls-3" x="18.6" y="75.82" width="192.28" height="123.85" rx="4.76" ry="4.76"/>
  </g>
</svg>