<?xml version="1.0" encoding="UTF-8"?>
<svg id="Layer_2" data-name="Layer 2" xmlns="http://www.w3.org/2000/svg" viewBox="0 0 211.54 256.03">
  <defs>
    <style>
      .cls-1 {
        fill: #505050;
      }

      .cls-1, .cls-2, .cls-3, .cls-4 {
        stroke-width: 0px;
      }

      .cls-2 {
        fill: #2a2a2a;
      }

      .cls-3 {
        fill: #404041;
      }

      .cls-4 {
        fill: #303030;
      }
    </style>
  </defs>
  <g id="Layer_1-2" data-name="Layer 1">
    <g>
      <path class="cls-3" d="m10.96,25.76h189.62c4.39,0,7.96,3.57,7.96,7.96v189.62c0,4.39-3.57,7.96-7.96,7.96H10.96c-4.39,0-7.96-3.57-7.96-7.96V33.72c0-4.39,3.57-7.96,7.96-7.96Z"/>
      <path class="cls-4" d="m200.58,28.76c2.73,0,4.96,2.22,4.96,4.96v189.62c0,2.73-2.22,4.96-4.96,4.96H10.96c-2.73,0-4.96-2.22-4.96-4.96V33.72c0-2.73,2.22-4.96,4.96-4.96h189.62m0-6H10.96c-6.05,0-10.96,4.91-10.96,10.96v189.62c0,6.05,4.91,10.96,10.96,10.96h189.62c6.05,0,10.96-4.91,10.96-10.96V33.72c0-6.05-4.91-10.96-10.96-10.96h0Z"/>
    </g>
    <path class="cls-2" d="m103.63,1.09l-29.26,39.99c-1.28,1.76-.03,4.23,2.14,4.23h58.52c2.18,0,3.43-2.47,2.14-4.23L107.92,1.09c-1.06-1.45-3.23-1.45-4.29,0Z"/>
    <path class="cls-2" d="m103.63,211.81l-29.26,39.99c-1.28,1.76-.03,4.23,2.14,4.23h58.52c2.18,0,3.43-2.47,2.14-4.23l-29.26-39.99c-1.06-1.45-3.23-1.45-4.29,0Z"/>
    <g>
      <path class="cls-1" d="m183.3,126.69l-33.85-33.88c-2.29-2.29-6.01-2.29-8.29,0l-8.47,8.47c-2.29,2.29-2.29,6.01,0,8.29l6.69,6.69h-67.2s8.11-8.11,8.11-8.11c2.28-2.29,2.27-6,0-8.28l-8.47-8.47c-1.11-1.11-2.58-1.72-4.15-1.72-1.57,0-3.04.61-4.14,1.72,0,0,0,0,0,0l-35.26,35.3c-.73.73-.73,1.91,0,2.65l33.85,33.88c2.29,2.29,6.01,2.29,8.29,0l8.47-8.47c2.29-2.29,2.29-6.01,0-8.29l-6.69-6.69h67.2s-8.11,8.11-8.11,8.11c-2.28,2.29-2.27,6,0,8.28l8.47,8.47c1.11,1.11,2.58,1.72,4.15,1.72,1.57,0,3.04-.61,4.14-1.72,0,0,0,0,0,0l35.26-35.3c.73-.73.73-1.91,0-2.65Z"/>
      <rect class="cls-1" x="16.4" y="67.66" width="11.98" height="120.71" rx="5.99" ry="5.99"/>
      <rect class="cls-1" x="183.85" y="67.66" width="11.98" height="120.71" rx="5.99" ry="5.99"/>
    </g>
  </g>
</svg>