<?xml version="1.0" encoding="UTF-8"?>
<svg id="Layer_2" data-name="Layer 2" xmlns="http://www.w3.org/2000/svg" viewBox="0 0 211.54 256.03">
  <defs>
    <style>
      .cls-1 {
        fill: #4f4f4f;
      }

      .cls-1, .cls-2, .cls-3, .cls-4 {
        stroke-width: 0px;
      }

      .cls-2 {
        fill: #2a2a2a;
      }

      .cls-3 {
        fill: #404041;
      }

      .cls-4 {
        fill: #303030;
      }
    </style>
  </defs>
  <g id="Layer_1-2" data-name="Layer 1">
    <g>
      <path class="cls-3" d="M10.96,25.76h189.62c4.39,0,7.96,3.57,7.96,7.96v189.62c0,4.39-3.57,7.96-7.96,7.96H10.96c-4.39,0-7.96-3.57-7.96-7.96V33.72c0-4.39,3.57-7.96,7.96-7.96Z"/>
      <path class="cls-4" d="M200.58,28.76c2.73,0,4.96,2.22,4.96,4.96v189.62c0,2.73-2.22,4.96-4.96,4.96H10.96c-2.73,0-4.96-2.22-4.96-4.96V33.72c0-2.73,2.22-4.96,4.96-4.96h189.62M200.58,22.76H10.96c-6.05,0-10.96,4.91-10.96,10.96v189.62c0,6.05,4.91,10.96,10.96,10.96h189.62c6.05,0,10.96-4.91,10.96-10.96V33.72c0-6.05-4.91-10.96-10.96-10.96h0Z"/>
    </g>
    <path class="cls-2" d="M103.63,1.09l-29.26,39.99c-1.28,1.76-.03,4.23,2.14,4.23h58.52c2.18,0,3.43-2.47,2.14-4.23L107.92,1.09c-1.06-1.45-3.23-1.45-4.29,0Z"/>
    <path class="cls-2" d="M103.63,211.81l-29.26,39.99c-1.28,1.76-.03,4.23,2.14,4.23h58.52c2.18,0,3.43-2.47,2.14-4.23l-29.26-39.99c-1.06-1.45-3.23-1.45-4.29,0Z"/>
    <g id="SVGRepo_iconCarrier" data-name="SVGRepo iconCarrier">
      <path class="cls-1" d="M92.73,187.74h26.09c2.47,6.93,9.04,11.94,16.81,11.94,9.88,0,17.92-8.04,17.92-17.92,0-5.11-2.17-9.7-5.61-12.96l16.59-77.41c7.43-2.18,12.91-8.98,12.91-17.11,0-9.88-8.03-17.92-17.92-17.92-7.77,0-14.34,5-16.81,11.94h-73.86c-2.47-6.94-9.04-11.94-16.82-11.94-9.88,0-17.92,8.03-17.92,17.92,0,8.13,5.48,14.94,12.92,17.11l16.59,77.41c-3.44,3.27-5.62,7.85-5.62,12.96,0,9.88,8.04,17.92,17.92,17.92,7.78,0,14.34-5.01,16.82-11.94ZM92.73,175.8c-2.47-6.94-9.04-11.94-16.82-11.94-.38,0-.74.09-1.12.11l-15.69-73.24c4.55-1.96,8.07-5.78,9.74-10.47h73.86c1.67,4.69,5.19,8.51,9.74,10.47l-15.69,73.24c-.38-.02-.73-.11-1.12-.11-7.77,0-14.34,5-16.81,11.94h-26.09s0,0,0,0Z"/>
    </g>
  </g>
</svg>