<?xml version="1.0" encoding="UTF-8"?>
<svg id="Layer_2" data-name="Layer 2" xmlns="http://www.w3.org/2000/svg" viewBox="0 0 256 255.17">
  <defs>
    <style>
      .cls-1 {
        fill: #6d6e7a;
      }

      .cls-1, .cls-2, .cls-3 {
        stroke-width: 0px;
      }

      .cls-2 {
        fill: #9696a0;
      }

      .cls-4 {
        stroke-width: 11px;
      }

      .cls-4, .cls-5 {
        fill: none;
        stroke: #6d6e7a;
        stroke-miterlimit: 10;
      }

      .cls-5 {
        stroke-width: 7px;
      }

      .cls-3 {
        fill: #b4b4bc;
      }
    </style>
  </defs>
  <g id="Layer_1-2" data-name="Layer 1">
    <path class="cls-3" d="M30.77,21.77h194.46c4.5,0,8.16,3.66,8.16,8.16v194.46c0,4.5-3.66,8.16-8.16,8.16H30.77c-4.5,0-8.16-3.66-8.16-8.16V29.94c0-4.5,3.66-8.16,8.16-8.16Z"/>
    <path class="cls-1" d="M225.23,24.85c2.8,0,5.09,2.28,5.09,5.09v194.46c0,2.8-2.28,5.09-5.09,5.09H30.77c-2.8,0-5.09-2.28-5.09-5.09V29.94c0-2.8,2.28-5.09,5.09-5.09h194.46M225.23,18.7H30.77c-6.2,0-11.24,5.04-11.24,11.24v194.46c0,6.2,5.04,11.24,11.24,11.24h194.46c6.2,0,11.24-5.04,11.24-11.24V29.94c0-6.2-5.04-11.24-11.24-11.24h0Z"/>
    <g>
      <rect class="cls-3" x="73.98" width="108.05" height="19.53" rx="4.07" ry="4.07"/>
      <path class="cls-2" d="M127.55,2.53l-28.95,10.03c-1.46.51-1.09,2.66.45,2.66h57.89c1.54,0,1.91-2.16.45-2.66l-28.95-10.03c-.29-.1-.61-.1-.9,0Z"/>
    </g>
    <g>
      <rect class="cls-3" x="73.98" y="235.64" width="108.05" height="19.53" rx="4.07" ry="4.07"/>
      <path class="cls-2" d="M127.55,238.17l-28.95,10.03c-1.46.51-1.09,2.66.45,2.66h57.89c1.54,0,1.91-2.16.45-2.66l-28.95-10.03c-.29-.1-.61-.1-.9,0Z"/>
    </g>
    <g>
      <rect class="cls-3" x="-44.26" y="117.4" width="108.05" height="19.53" rx="4.07" ry="4.07" transform="translate(136.93 117.4) rotate(90)"/>
      <path class="cls-2" d="M17,126.72l-10.03-28.95c-.51-1.46-2.66-1.09-2.66.45v57.89c0,1.54,2.16,1.91,2.66.45l10.03-28.95c.1-.29.1-.61,0-.9Z"/>
    </g>
    <g>
      <rect class="cls-3" x="192.21" y="117.4" width="108.05" height="19.53" rx="4.07" ry="4.07" transform="translate(119.07 373.4) rotate(-90)"/>
      <path class="cls-2" d="M239,127.61l10.03,28.95c.51,1.46,2.66,1.09,2.66-.45v-57.89c0-1.54-2.16-1.91-2.66-.45l-10.03,28.95c-.1.29-.1.61,0,.9Z"/>
    </g>
    <circle class="cls-5" cx="128" cy="127.17" r="36.93"/>
    <g>
      <line class="cls-4" x1="30.07" y1="127.17" x2="64.38" y2="127.17"/>
      <polygon class="cls-1" points="59.57 143.62 88.07 127.17 59.57 110.71 59.57 143.62"/>
    </g>
    <g>
      <line class="cls-4" x1="128" y1="90.23" x2="128" y2="55.91"/>
      <polygon class="cls-1" points="144.45 60.73 128 32.23 111.55 60.73 144.45 60.73"/>
    </g>
    <line class="cls-4" x1="128" y1="222.24" x2="128" y2="164.24"/>
    <g>
      <line class="cls-4" x1="225.93" y1="127.17" x2="191.62" y2="127.17"/>
      <polygon class="cls-1" points="196.43 110.71 167.93 127.17 196.43 143.62 196.43 110.71"/>
    </g>
  </g>
</svg>