<?xml version="1.0" encoding="UTF-8"?>
<svg id="Layer_2" data-name="Layer 2" xmlns="http://www.w3.org/2000/svg" viewBox="0 0 211.54 256.03">
  <defs>
    <style>
      .cls-1 {
        fill: #1a1a1a;
      }

      .cls-1, .cls-2, .cls-3 {
        stroke-width: 0px;
      }

      .cls-2 {
        fill: #202020;
      }

      .cls-3 {
        fill: #404041;
      }
    </style>
  </defs>
  <g id="Layer_1-2" data-name="Layer 1">
    <g>
      <path class="cls-2" d="m10.96,25.76h189.62c4.39,0,7.96,3.57,7.96,7.96v189.62c0,4.39-3.57,7.96-7.96,7.96H10.96c-4.39,0-7.96-3.57-7.96-7.96V33.72c0-4.39,3.57-7.96,7.96-7.96Z"/>
      <path class="cls-3" d="m200.58,28.76c2.73,0,4.96,2.22,4.96,4.96v189.62c0,2.73-2.22,4.96-4.96,4.96H10.96c-2.73,0-4.96-2.22-4.96-4.96V33.72c0-2.73,2.22-4.96,4.96-4.96h189.62m0-6H10.96c-6.05,0-10.96,4.91-10.96,10.96v189.62c0,6.05,4.91,10.96,10.96,10.96h189.62c6.05,0,10.96-4.91,10.96-10.96V33.72c0-6.05-4.91-10.96-10.96-10.96h0Z"/>
    </g>
    <path class="cls-3" d="m103.63,1.09l-29.26,39.99c-1.28,1.76-.03,4.23,2.14,4.23h58.52c2.18,0,3.43-2.47,2.14-4.23L107.92,1.09c-1.06-1.45-3.23-1.45-4.29,0Z"/>
    <path class="cls-3" d="m103.63,211.81l-29.26,39.99c-1.28,1.76-.03,4.23,2.14,4.23h58.52c2.18,0,3.43-2.47,2.14-4.23l-29.26-39.99c-1.06-1.45-3.23-1.45-4.29,0Z"/>
    <g id="SVGRepo_iconCarrier" data-name="SVGRepo iconCarrier">
      <g>
        <rect class="cls-1" x="34.25" y="56.5" width="35.76" height="35.76" rx="5.96" ry="5.96"/>
        <rect class="cls-1" x="34.25" y="163.79" width="35.76" height="35.76" rx="5.96" ry="5.96"/>
        <rect class="cls-1" x="141.53" y="56.5" width="35.76" height="35.76" rx="5.96" ry="5.96"/>
        <rect class="cls-1" x="141.53" y="163.79" width="35.76" height="35.76" rx="5.96" ry="5.96"/>
        <circle class="cls-1" cx="105.77" cy="74.38" r="5.96"/>
        <circle class="cls-1" cx="81.93" cy="74.38" r="5.96"/>
        <circle class="cls-1" cx="129.61" cy="74.38" r="5.96"/>
        <circle class="cls-1" cx="105.77" cy="181.67" r="5.96"/>
        <circle class="cls-1" cx="52.13" cy="128.03" r="5.96"/>
        <path class="cls-1" d="m52.13,157.83c3.29,0,5.96-2.67,5.96-5.96s-2.67-5.96-5.96-5.96-5.96,2.67-5.96,5.96,2.67,5.96,5.96,5.96Z"/>
        <path class="cls-1" d="m52.13,110.15c3.29,0,5.96-2.67,5.96-5.96s-2.67-5.96-5.96-5.96-5.96,2.67-5.96,5.96,2.67,5.96,5.96,5.96Z"/>
        <circle class="cls-1" cx="159.41" cy="128.03" r="5.96"/>
        <circle class="cls-1" cx="159.41" cy="151.87" r="5.96"/>
        <circle class="cls-1" cx="159.41" cy="104.18" r="5.96"/>
        <circle class="cls-1" cx="81.93" cy="181.67" r="5.96"/>
        <circle class="cls-1" cx="129.61" cy="181.67" r="5.96"/>
      </g>
    </g>
  </g>
</svg>