<?xml version="1.0" encoding="UTF-8"?>
<svg id="Layer_2" data-name="Layer 2" xmlns="http://www.w3.org/2000/svg" viewBox="0 0 188 68.94">
  <defs>
    <style>
      .cls-1 {
        fill: #b4b4bc;
        stroke-width: 0px;
      }
    </style>
  </defs>
  <g id="Layer_1-2" data-name="Layer 1">
    <g>
      <path class="cls-1" d="M0,0h11.49s0,28.73,0,28.73h23.97s-10.5-10.5-10.5-10.5l8.12-8.12,24.37,24.37-24.37,24.37-8.12-8.12,10.5-10.5H11.49s0,28.73,0,28.73H0S0,0,0,0Z"/>
      <path class="cls-1" d="M176.51,0h11.49s0,68.94,0,68.94h-11.49s0-28.73,0-28.73h-23.97s10.51,10.51,10.51,10.51l-8.13,8.12-24.37-24.38,24.37-24.37,8.13,8.12-10.5,10.5h23.97s0-28.73,0-28.73Z"/>
    </g>
  </g>
</svg>