<?xml version="1.0" encoding="UTF-8"?>
<svg id="Layer_2" data-name="Layer 2" xmlns="http://www.w3.org/2000/svg" viewBox="0 0 216.94 255.17">
  <defs>
    <style>
      .cls-1 {
        fill: #6d6e7a;
      }

      .cls-1, .cls-2, .cls-3 {
        stroke-width: 0px;
      }

      .cls-2 {
        fill: #9696a0;
      }

      .cls-3 {
        fill: #b4b4bc;
      }
    </style>
  </defs>
  <g id="Layer_1-2" data-name="Layer 1">
    <path class="cls-1" d="M11.24,21.77h194.46c4.5,0,8.16,3.66,8.16,8.16v194.46c0,4.5-3.66,8.16-8.16,8.16H11.24c-4.5,0-8.16-3.66-8.16-8.16V29.94c0-4.5,3.66-8.16,8.16-8.16Z"/>
    <path class="cls-3" d="M205.7,24.85c2.8,0,5.09,2.28,5.09,5.09v194.46c0,2.8-2.28,5.09-5.09,5.09H11.24c-2.8,0-5.09-2.28-5.09-5.09V29.94c0-2.8,2.28-5.09,5.09-5.09h194.46M205.7,18.7H11.24c-6.2,0-11.24,5.04-11.24,11.24v194.46c0,6.2,5.04,11.24,11.24,11.24h194.46c6.2,0,11.24-5.04,11.24-11.24V29.94c0-6.2-5.04-11.24-11.24-11.24h0Z"/>
    <g>
      <rect class="cls-3" x="54.45" width="108.05" height="19.53" rx="4.07" ry="4.07"/>
      <path class="cls-2" d="M108.02,2.53l-28.95,10.03c-1.46.51-1.09,2.66.45,2.66h57.89c1.54,0,1.91-2.16.45-2.66l-28.95-10.03c-.29-.1-.61-.1-.9,0Z"/>
    </g>
    <g>
      <rect class="cls-3" x="54.45" y="235.64" width="108.05" height="19.53" rx="4.07" ry="4.07"/>
      <path class="cls-2" d="M108.02,238.17l-28.95,10.03c-1.46.51-1.09,2.66.45,2.66h57.89c1.54,0,1.91-2.16.45-2.66l-28.95-10.03c-.29-.1-.61-.1-.9,0Z"/>
    </g>
    <path class="cls-3" d="M122.4,106.27v-34.82c0-3.85,3.12-6.96,6.96-6.96s6.96,3.12,6.96,6.96v18.01l36.86-36.87c2.72-2.72,7.13-2.72,9.85,0s2.72,7.13,0,9.85l-36.87,36.86h18.01c3.85,0,6.96,3.12,6.96,6.96s-3.12,6.96-6.96,6.96h-34.82c-3.85,0-6.96-3.12-6.96-6.96ZM87.58,141.09h-34.82c-3.85,0-6.96,3.12-6.96,6.96s3.12,6.96,6.96,6.96h18.01l-36.87,36.86c-2.72,2.72-2.72,7.13,0,9.85s7.13,2.72,9.85,0l36.86-36.87v18.01c0,3.85,3.12,6.96,6.96,6.96s6.96-3.12,6.96-6.96v-34.82c0-3.85-3.12-6.96-6.96-6.96ZM146.17,155.02h18.01c3.85,0,6.96-3.12,6.96-6.96s-3.12-6.96-6.96-6.96h-34.82c-3.85,0-6.96,3.12-6.96,6.96v34.82c0,3.85,3.12,6.96,6.96,6.96s6.96-3.12,6.96-6.96v-18.01l36.86,36.87c2.72,2.72,7.13,2.72,9.85,0s2.72-7.13,0-9.85l-36.87-36.86ZM87.58,64.49c-3.85,0-6.96,3.12-6.96,6.96v18.01l-36.86-36.87c-2.72-2.72-7.13-2.72-9.85,0s-2.72,7.13,0,9.85l36.87,36.86h-18.01c-3.85,0-6.96,3.12-6.96,6.96s3.12,6.96,6.96,6.96h34.82c3.85,0,6.96-3.12,6.96-6.96v-34.82c0-3.85-3.12-6.96-6.96-6.96Z"/>
  </g>
</svg>