<?xml version="1.0" encoding="UTF-8"?>
<svg id="Layer_2" data-name="Layer 2" xmlns="http://www.w3.org/2000/svg" viewBox="0 0 211.54 256.03">
  <defs>
    <style>
      .cls-1 {
        fill: #4f4f4f;
      }

      .cls-1, .cls-2, .cls-3, .cls-4 {
        stroke-width: 0px;
      }

      .cls-2 {
        fill: #2a2a2a;
      }

      .cls-3 {
        fill: #404041;
      }

      .cls-4 {
        fill: #303030;
      }
    </style>
  </defs>
  <g id="Layer_1-2" data-name="Layer 1">
    <g>
      <path class="cls-3" d="M10.96,25.76h189.62c4.39,0,7.96,3.57,7.96,7.96v189.62c0,4.39-3.57,7.96-7.96,7.96H10.96c-4.39,0-7.96-3.57-7.96-7.96V33.72c0-4.39,3.57-7.96,7.96-7.96Z"/>
      <path class="cls-4" d="M200.58,28.76c2.73,0,4.96,2.22,4.96,4.96v189.62c0,2.73-2.22,4.96-4.96,4.96H10.96c-2.73,0-4.96-2.22-4.96-4.96V33.72c0-2.73,2.22-4.96,4.96-4.96h189.62M200.58,22.76H10.96c-6.05,0-10.96,4.91-10.96,10.96v189.62c0,6.05,4.91,10.96,10.96,10.96h189.62c6.05,0,10.96-4.91,10.96-10.96V33.72c0-6.05-4.91-10.96-10.96-10.96h0Z"/>
    </g>
    <path class="cls-2" d="M103.63,1.09l-29.26,39.99c-1.28,1.76-.03,4.23,2.14,4.23h58.52c2.18,0,3.43-2.47,2.14-4.23L107.92,1.09c-1.06-1.45-3.23-1.45-4.29,0Z"/>
    <path class="cls-2" d="M103.63,211.81l-29.26,39.99c-1.28,1.76-.03,4.23,2.14,4.23h58.52c2.18,0,3.43-2.47,2.14-4.23l-29.26-39.99c-1.06-1.45-3.23-1.45-4.29,0Z"/>
    <path class="cls-1" d="M119.7,107.12v-34.82c0-3.85,3.12-6.96,6.96-6.96s6.96,3.12,6.96,6.96v18.01l36.86-36.87c2.72-2.72,7.13-2.72,9.85,0s2.72,7.13,0,9.85l-36.87,36.86h18.01c3.85,0,6.96,3.12,6.96,6.96s-3.12,6.96-6.96,6.96h-34.82c-3.85,0-6.96-3.12-6.96-6.96ZM84.88,141.94h-34.82c-3.85,0-6.96,3.12-6.96,6.96s3.12,6.96,6.96,6.96h18.01l-36.87,36.86c-2.72,2.72-2.72,7.13,0,9.85s7.13,2.72,9.85,0l36.86-36.87v18.01c0,3.85,3.12,6.96,6.96,6.96s6.96-3.12,6.96-6.96v-34.82c0-3.85-3.12-6.96-6.96-6.96ZM143.47,155.87h18.01c3.85,0,6.96-3.12,6.96-6.96s-3.12-6.96-6.96-6.96h-34.82c-3.85,0-6.96,3.12-6.96,6.96v34.82c0,3.85,3.12,6.96,6.96,6.96s6.96-3.12,6.96-6.96v-18.01l36.86,36.87c2.72,2.72,7.13,2.72,9.85,0s2.72-7.13,0-9.85l-36.87-36.86ZM84.88,65.33c-3.85,0-6.96,3.12-6.96,6.96v18.01l-36.86-36.87c-2.72-2.72-7.13-2.72-9.85,0s-2.72,7.13,0,9.85l36.87,36.86h-18.01c-3.85,0-6.96,3.12-6.96,6.96s3.12,6.96,6.96,6.96h34.82c3.85,0,6.96-3.12,6.96-6.96v-34.82c0-3.85-3.12-6.96-6.96-6.96Z"/>
  </g>
</svg>