<?xml version="1.0" encoding="UTF-8"?>
<svg id="Layer_2" data-name="Layer 2" xmlns="http://www.w3.org/2000/svg" xmlns:xlink="http://www.w3.org/1999/xlink" viewBox="0 0 215.83 237.47">
  <defs>
    <style>
      .cls-1 {
        fill: #6d6e7a;
      }

      .cls-1, .cls-2, .cls-3, .cls-4 {
        stroke-width: 0px;
      }

      .cls-2 {
        fill: #9696a0;
      }

      .cls-3 {
        filter: url(#drop-shadow-1);
      }

      .cls-3, .cls-4 {
        fill: #b4b4bc;
      }
    </style>
    <filter id="drop-shadow-1" filterUnits="userSpaceOnUse">
      <feOffset dx="0" dy="0"/>
      <feGaussianBlur result="blur" stdDeviation="2"/>
      <feFlood flood-color="#000" flood-opacity=".75"/>
      <feComposite in2="blur" operator="in"/>
      <feComposite in="SourceGraphic"/>
    </filter>
  </defs>
  <g id="Layer_1-2" data-name="Layer 1">
    <path class="cls-1" d="M11.18,24.7h193.47c4.48,0,8.12,3.64,8.12,8.12v193.47c0,4.48-3.64,8.12-8.12,8.12H11.18c-4.48,0-8.12-3.64-8.12-8.12V32.82c0-4.48,3.64-8.12,8.12-8.12Z"/>
    <path class="cls-4" d="M204.65,27.76c2.79,0,5.06,2.27,5.06,5.06v193.47c0,2.79-2.27,5.06-5.06,5.06H11.18c-2.79,0-5.06-2.27-5.06-5.06V32.82c0-2.79,2.27-5.06,5.06-5.06h193.47M204.65,21.64H11.18c-6.17,0-11.18,5.01-11.18,11.18v193.47c0,6.17,5.01,11.18,11.18,11.18h193.47c6.17,0,11.18-5.01,11.18-11.18V32.82c0-6.17-5.01-11.18-11.18-11.18h0Z"/>
    <rect class="cls-3" x="57.89" y="77.98" width="100.05" height="100.05" rx="5.28" ry="5.28"/>
    <rect class="cls-4" x="31.11" width="153.6" height="27.76" rx="4.07" ry="4.07"/>
    <path class="cls-2" d="M107.47,3.54l-44.58,15.45c-1.46.51-1.09,2.66.45,2.66h89.15c1.54,0,1.91-2.16.45-2.66L108.36,3.54c-.29-.1-.61-.1-.9,0Z"/>
  </g>
</svg>