<?xml version="1.0" encoding="UTF-8"?>
<svg id="Layer_2" data-name="Layer 2" xmlns="http://www.w3.org/2000/svg" viewBox="0 0 432.51 216.25">
  <defs>
    <style>
      .cls-1 {
        fill: #6d6e7a;
      }

      .cls-1, .cls-2 {
        stroke-width: 0px;
      }

      .cls-2 {
        fill: #b4b4bc;
      }
    </style>
  </defs>
  <g id="Layer_1-2" data-name="Layer 1">
    <g>
      <path class="cls-2" d="M6.94,2.5h418.62c2.45,0,4.44,1.99,4.44,4.44v202.37c0,2.45-1.99,4.44-4.44,4.44H6.94c-2.45,0-4.44-1.99-4.44-4.44V6.94c0-2.45,1.99-4.44,4.44-4.44Z"/>
      <path class="cls-1" d="M425.57,5c1.07,0,1.94.87,1.94,1.94v202.37c0,1.07-.87,1.94-1.94,1.94H6.94c-1.07,0-1.94-.87-1.94-1.94V6.94c0-1.07.87-1.94,1.94-1.94h418.62M425.57,0H6.94C3.11,0,0,3.11,0,6.94v202.37c0,3.83,3.11,6.94,6.94,6.94h418.62c3.83,0,6.94-3.11,6.94-6.94V6.94c0-3.83-3.11-6.94-6.94-6.94h0Z"/>
    </g>
  </g>
</svg>