<?xml version="1.0" encoding="UTF-8"?>
<svg id="Layer_2" data-name="Layer 2" xmlns="http://www.w3.org/2000/svg" viewBox="0 0 175.59 116.27">
  <defs>
    <style>
      .cls-1 {
        fill: #b4b4bc;
        stroke-width: 0px;
      }
    </style>
  </defs>
  <g id="Layer_1-2" data-name="Layer 1">
    <g>
      <path class="cls-1" d="M12.26,59.43l33.13,33.16c2.24,2.24,5.88,2.24,8.11,0l8.29-8.29c2.24-2.24,2.24-5.88,0-8.11l-6.55-6.55h65.76s-7.94,7.94-7.94,7.94c-2.23,2.24-2.22,5.87,0,8.1l8.29,8.29c1.09,1.09,2.52,1.68,4.06,1.68s2.97-.6,4.05-1.68h0l34.51-34.54c.71-.71.71-1.87,0-2.59l-33.13-33.16c-2.24-2.24-5.88-2.24-8.11,0l-8.29,8.29c-2.24,2.24-2.24,5.88,0,8.11l6.55,6.55H55.23s7.94-7.94,7.94-7.94c2.23-2.24,2.22-5.87,0-8.1l-8.29-8.29c-1.09-1.09-2.52-1.68-4.06-1.68s-2.97.6-4.05,1.68h0L12.26,56.84c-.71.71-.71,1.87,0,2.59Z"/>
      <path class="cls-1" d="M169.73,116.27h0c-3.24,0-5.86-2.58-5.86-5.77V5.77C163.87,2.58,166.49,0,169.73,0h0c3.24,0,5.86,2.58,5.86,5.77v104.73c0,3.19-2.62,5.77-5.86,5.77Z"/>
      <path class="cls-1" d="M5.86,116.27h0c-3.24,0-5.86-2.58-5.86-5.77V5.77C0,2.58,2.62,0,5.86,0h0c3.24,0,5.86,2.58,5.86,5.77v104.73c0,3.19-2.62,5.77-5.86,5.77Z"/>
    </g>
  </g>
</svg>