<?xml version="1.0" encoding="UTF-8"?>
<svg id="Layer_2" data-name="Layer 2" xmlns="http://www.w3.org/2000/svg" viewBox="0 0 215.83 215.83">
  <defs>
    <style>
      .cls-1 {
        fill: #6d6e7a;
      }

      .cls-1, .cls-2 {
        stroke-width: 0px;
      }

      .cls-2 {
        fill: #b4b4bc;
      }
    </style>
  </defs>
  <g id="Layer_1-2" data-name="Layer 1">
    <path class="cls-1" d="M11.18,3.06h193.47c4.48,0,8.12,3.64,8.12,8.12v193.47c0,4.48-3.64,8.12-8.12,8.12H11.18c-4.48,0-8.12-3.64-8.12-8.12V11.18C3.06,6.7,6.7,3.06,11.18,3.06Z"/>
    <path class="cls-2" d="M204.65,6.12c2.79,0,5.06,2.27,5.06,5.06v193.47c0,2.79-2.27,5.06-5.06,5.06H11.18c-2.79,0-5.06-2.27-5.06-5.06V11.18c0-2.79,2.27-5.06,5.06-5.06h193.47M204.65,0H11.18C5.01,0,0,5.01,0,11.18v193.47c0,6.17,5.01,11.18,11.18,11.18h193.47c6.17,0,11.18-5.01,11.18-11.18V11.18c0-6.17-5.01-11.18-11.18-11.18h0Z"/>
  </g>
</svg>