<?xml version="1.0" encoding="UTF-8"?>
<svg id="Layer_2" data-name="Layer 2" xmlns="http://www.w3.org/2000/svg" viewBox="0 0 280.29 187.79">
  <defs>
    <style>
      .cls-1 {
        fill: #6d6e7a;
        stroke-width: 0px;
      }

      .cls-2 {
        fill: none;
        stroke: #6d6e7a;
        stroke-linecap: round;
        stroke-miterlimit: 10;
        stroke-width: 13px;
      }
    </style>
  </defs>
  <g id="Layer_1-2" data-name="Layer 1">
    <g>
      <g>
        <line class="cls-2" x1="6.5" y1="96.72" x2="129.53" y2="96.72"/>
        <polygon class="cls-1" points="123.84 116.17 157.51 96.72 123.84 77.28 123.84 116.17"/>
      </g>
      <line class="cls-2" x1="6.72" y1="97.73" x2="6.72" y2="175.14"/>
    </g>
    <g>
      <line class="cls-2" x1="229.1" y1="35.87" x2="229.1" y2="27.99"/>
      <polygon class="cls-1" points="248.55 33.68 229.1 0 209.65 33.68 248.55 33.68"/>
    </g>
    <g>
      <line class="cls-2" x1="229.1" y1="181.29" x2="229.1" y2="173.41"/>
      <polygon class="cls-1" points="248.55 179.1 229.1 145.42 209.65 179.1 248.55 179.1"/>
    </g>
    <path class="cls-1" d="M179.64,89.99l47.76,27.29c1.05.6,2.34.6,3.39,0l47.76-27.29c1.64-.93,2.21-3.02,1.27-4.65-.3-.53-.74-.97-1.27-1.27l-47.76-27.29c-1.05-.6-2.34-.6-3.39,0l-47.76,27.29c-1.64.93-2.21,3.02-1.27,4.65.3.53.74.97,1.27,1.27ZM229.1,63.64l40.88,23.36-40.88,23.36-40.88-23.36,40.88-23.36ZM279.82,102.35c.95,1.62.41,3.72-1.22,4.67-.01,0-.03.01-.04.02l-47.76,27.29c-1.05.6-2.34.6-3.39,0l-47.79-27.29c-1.64-.94-2.21-3.04-1.27-4.68.94-1.64,3.04-2.21,4.68-1.27l46.05,26.33,46.05-26.33c1.63-.94,3.72-.38,4.66,1.25,0,0,0,0,0,0Z"/>
  </g>
</svg>