<?xml version="1.0" encoding="UTF-8"?>
<svg id="Layer_2" data-name="Layer 2" xmlns="http://www.w3.org/2000/svg" viewBox="0 0 153.22 153.22">
  <defs>
    <style>
      .cls-1 {
        fill: #b4b4bc;
        stroke-width: 0px;
      }
    </style>
  </defs>
  <g id="Layer_1-2" data-name="Layer 1">
    <path class="cls-1" d="M90.54,55.72V20.9c0-3.85,3.12-6.96,6.96-6.96s6.96,3.12,6.96,6.96v18.01L141.33,2.04c2.72-2.72,7.13-2.72,9.85,0,2.72,2.72,2.72,7.13,0,9.85l-36.87,36.86h18.01c3.85,0,6.96,3.12,6.96,6.96s-3.12,6.96-6.96,6.96h-34.82c-3.85,0-6.96-3.12-6.96-6.96ZM55.72,90.54H20.9c-3.85,0-6.96,3.12-6.96,6.96s3.12,6.96,6.96,6.96h18.01L2.04,141.33c-2.72,2.72-2.72,7.13,0,9.85,2.72,2.72,7.13,2.72,9.85,0l36.86-36.87v18.01c0,3.85,3.12,6.96,6.96,6.96s6.96-3.12,6.96-6.96v-34.82c0-3.85-3.12-6.96-6.96-6.96ZM114.31,104.47h18.01c3.85,0,6.96-3.12,6.96-6.96s-3.12-6.96-6.96-6.96h-34.82c-3.85,0-6.96,3.12-6.96,6.96v34.82c0,3.85,3.12,6.96,6.96,6.96s6.96-3.12,6.96-6.96v-18.01l36.86,36.87c2.72,2.72,7.13,2.72,9.85,0,2.72-2.72,2.72-7.13,0-9.85l-36.87-36.86ZM55.72,13.93c-3.85,0-6.96,3.12-6.96,6.96v18.01L11.9,2.04C9.17-.68,4.76-.68,2.04,2.04c-2.72,2.72-2.72,7.13,0,9.85l36.87,36.86h-18.01c-3.85,0-6.96,3.12-6.96,6.96s3.12,6.96,6.96,6.96h34.82c3.85,0,6.96-3.12,6.96-6.96V20.9c0-3.85-3.12-6.96-6.96-6.96Z"/>
  </g>
</svg>