<?xml version="1.0" encoding="UTF-8"?>
<svg id="Layer_2" data-name="Layer 2" xmlns="http://www.w3.org/2000/svg" viewBox="0 0 152.9 147.67">
  <defs>
    <style>
      .cls-1 {
        fill: #b4b4bc;
        stroke-width: 0px;
      }
    </style>
  </defs>
  <g id="Layer_1-2" data-name="Layer 1">
    <g>
      <path class="cls-1" d="M75.36,10.31l-27.88,27.86c-1.88,1.88-1.88,4.95,0,6.82l6.97,6.97c1.88,1.88,4.95,1.88,6.82,0l5.51-5.51v55.31s-6.67-6.67-6.67-6.67c-1.88-1.88-4.94-1.87-6.81,0l-6.97,6.97c-.91.91-1.42,2.12-1.42,3.42s.5,2.5,1.42,3.41h0l29.05,29.02c.6.6,1.57.6,2.18,0l27.88-27.86c1.88-1.88,1.88-4.95,0-6.82l-6.97-6.97c-1.88-1.88-4.95-1.88-6.82,0l-5.51,5.51v-55.31l6.67,6.67c1.88,1.88,4.94,1.87,6.81,0l6.97-6.97c.91-.91,1.42-2.12,1.42-3.42s-.5-2.5-1.42-3.41h0l-29.05-29.02c-.6-.6-1.57-.6-2.18,0Z"/>
      <path class="cls-1" d="M0,142.74h0c0-2.72,3.4-4.93,7.59-4.93h137.72c4.19,0,7.59,2.21,7.59,4.93h0c0,2.72-3.4,4.93-7.59,4.93H7.59c-4.19,0-7.59-2.21-7.59-4.93Z"/>
      <path class="cls-1" d="M0,4.93H0C0,2.21,3.4,0,7.59,0h137.72c4.19,0,7.59,2.21,7.59,4.93h0c0,2.72-3.4,4.93-7.59,4.93H7.59C3.4,9.86,0,7.65,0,4.93Z"/>
    </g>
  </g>
</svg>