<?xml version="1.0" encoding="UTF-8"?>
<svg id="Layer_2" data-name="Layer 2" xmlns="http://www.w3.org/2000/svg" viewBox="0 0 216.94 236.47">
  <defs>
    <style>
      .cls-1 {
        fill: #6d6e7a;
      }

      .cls-1, .cls-2, .cls-3 {
        stroke-width: 0px;
      }

      .cls-2 {
        fill: #9696a0;
      }

      .cls-3 {
        fill: #b4b4bc;
      }
    </style>
  </defs>
  <g id="Layer_1-2" data-name="Layer 1">
    <path class="cls-1" d="M11.24,3.08h194.46c4.5,0,8.16,3.66,8.16,8.16v194.46c0,4.5-3.66,8.16-8.16,8.16H11.24c-4.5,0-8.16-3.66-8.16-8.16V11.24C3.08,6.74,6.74,3.08,11.24,3.08Z"/>
    <path class="cls-3" d="M205.7,6.15c2.8,0,5.09,2.28,5.09,5.09v194.46c0,2.8-2.28,5.09-5.09,5.09H11.24c-2.8,0-5.09-2.28-5.09-5.09V11.24c0-2.8,2.28-5.09,5.09-5.09h194.46M205.7,0H11.24C5.04,0,0,5.04,0,11.24v194.46c0,6.2,5.04,11.24,11.24,11.24h194.46c6.2,0,11.24-5.04,11.24-11.24V11.24c0-6.2-5.04-11.24-11.24-11.24h0Z"/>
    <g>
      <rect class="cls-3" x="54.45" y="216.94" width="108.05" height="19.53" rx="4.07" ry="4.07"/>
      <path class="cls-2" d="M108.02,219.47l-28.95,10.03c-1.46.51-1.09,2.66.45,2.66h57.89c1.54,0,1.91-2.16.45-2.66l-28.95-10.03c-.29-.1-.61-.1-.9,0Z"/>
    </g>
  </g>
</svg>