<?xml version="1.0" encoding="UTF-8"?>
<svg id="Layer_2" data-name="Layer 2" xmlns="http://www.w3.org/2000/svg" viewBox="0 0 216.94 255.17">
  <defs>
    <style>
      .cls-1 {
        fill: #6d6e7a;
      }

      .cls-1, .cls-2, .cls-3, .cls-4 {
        stroke-width: 0px;
      }

      .cls-2 {
        fill: #9696a0;
      }

      .cls-3 {
        fill: #ededed;
      }

      .cls-4 {
        fill: #b4b4bc;
      }
    </style>
  </defs>
  <g id="Layer_1-2" data-name="Layer 1">
    <path class="cls-1" d="M11.24,21.77h194.46c4.5,0,8.16,3.66,8.16,8.16v194.46c0,4.5-3.66,8.16-8.16,8.16H11.24c-4.5,0-8.16-3.66-8.16-8.16V29.94c0-4.5,3.66-8.16,8.16-8.16Z"/>
    <path class="cls-4" d="M205.7,24.85c2.8,0,5.09,2.28,5.09,5.09v194.46c0,2.8-2.28,5.09-5.09,5.09H11.24c-2.8,0-5.09-2.28-5.09-5.09V29.94c0-2.8,2.28-5.09,5.09-5.09h194.46M205.7,18.7H11.24c-6.2,0-11.24,5.04-11.24,11.24v194.46c0,6.2,5.04,11.24,11.24,11.24h194.46c6.2,0,11.24-5.04,11.24-11.24V29.94c0-6.2-5.04-11.24-11.24-11.24h0Z"/>
    <g>
      <rect class="cls-4" x="54.45" width="108.05" height="19.53" rx="4.07" ry="4.07"/>
      <path class="cls-2" d="M108.02,2.53l-28.95,10.03c-1.46.51-1.09,2.66.45,2.66h57.89c1.54,0,1.91-2.16.45-2.66l-28.95-10.03c-.29-.1-.61-.1-.9,0Z"/>
    </g>
    <g>
      <rect class="cls-4" x="54.45" y="235.64" width="108.05" height="19.53" rx="4.07" ry="4.07"/>
      <path class="cls-2" d="M108.02,238.17l-28.95,10.03c-1.46.51-1.09,2.66.45,2.66h57.89c1.54,0,1.91-2.16.45-2.66l-28.95-10.03c-.29-.1-.61-.1-.9,0Z"/>
    </g>
    <path class="cls-3" d="M157.99,147.63c-1.43-1.15-3.47-1.15-4.9,0-.46.37-11.28,9.16-11.28,20.71,0,7.58,6.15,13.73,13.73,13.73s13.73-6.15,13.73-13.73c0-11.55-10.81-20.34-11.28-20.71ZM155.54,174.22c-3.25,0-5.88-2.63-5.88-5.88,0-4.99,3.43-9.57,5.88-12.22,2.45,2.66,5.88,7.26,5.88,12.22,0,3.25-2.63,5.88-5.88,5.88ZM156.35,126.1l-52.69-52.69c-1.53-1.53-4.01-1.53-5.54,0l-19.91,19.93-12.06-12.09c-1.53-1.53-4.02-1.53-5.55,0-1.53,1.53-1.53,4.02,0,5.55l12.06,12.06-21.54,21.53c-4.59,4.59-4.59,12.04,0,16.64l41.62,41.62c4.59,4.59,12.04,4.59,16.64,0l46.98-46.98c1.54-1.53,1.54-4.01.01-5.55,0,0,0,0-.01-.01ZM103.83,173.07c-1.53,1.53-4.01,1.53-5.54,0l-41.6-41.6c-1.53-1.53-1.53-4.01,0-5.54l21.53-21.53,14.28,14.28c-3.6,6.67-1.12,15,5.56,18.6s15,1.12,18.6-5.56c3.6-6.67,1.12-15-5.56-18.6-4.07-2.2-8.98-2.2-13.06,0l-14.27-14.27,17.16-17.13,47.15,47.15-44.23,44.21ZM104.56,119.32c3.25,0,5.88,2.64,5.87,5.89,0,3.25-2.64,5.88-5.89,5.87-3.25,0-5.88-2.64-5.87-5.89,0-1.56.62-3.06,1.73-4.16,1.1-1.1,2.6-1.72,4.16-1.72Z"/>
  </g>
</svg>