<?xml version="1.0" encoding="UTF-8"?>
<svg id="Layer_2" data-name="Layer 2" xmlns="http://www.w3.org/2000/svg" viewBox="0 0 256 143.16">
  <defs>
    <style>
      .cls-1 {
        fill: #6d6e7a;
      }

      .cls-1, .cls-2, .cls-3 {
        stroke-width: 0px;
      }

      .cls-4 {
        stroke-width: 6px;
      }

      .cls-4, .cls-5, .cls-6 {
        fill: none;
        stroke: #6d6e7a;
        stroke-linecap: round;
        stroke-miterlimit: 10;
      }

      .cls-2 {
        fill: #9696a0;
      }

      .cls-5 {
        stroke-width: 5px;
      }

      .cls-3 {
        fill: #b4b4bc;
      }

      .cls-6 {
        stroke-width: 7px;
      }
    </style>
  </defs>
  <g id="Layer_1-2" data-name="Layer 1">
    <g>
      <rect class="cls-3" x="94.93" y="0" width="64.64" height="7.62" rx=".95" ry=".95"/>
      <path class="cls-2" d="M127.12.96l-16.76,3.79c-.7.16-.59,1.19.13,1.19h33.53c.72,0,.84-1.03.13-1.19l-16.76-3.79c-.09-.02-.18-.02-.27,0Z"/>
    </g>
    <g>
      <rect class="cls-3" x="28.39" y="135.54" width="65.21" height="7.62" rx=".95" ry=".95"/>
      <path class="cls-2" d="M60.87,136.5l-16.91,3.79c-.7.16-.59,1.19.13,1.19h33.83c.72,0,.84-1.04.13-1.19l-16.91-3.79c-.09-.02-.18-.02-.26,0Z"/>
    </g>
    <g>
      <rect class="cls-3" x="160.16" y="135.54" width="64.93" height="7.62" rx=".95" ry=".95"/>
      <path class="cls-2" d="M192.49,136.5l-16.84,3.79c-.7.16-.59,1.19.13,1.19h33.68c.72,0,.84-1.04.13-1.19l-16.84-3.79c-.09-.02-.18-.02-.27,0Z"/>
    </g>
    <g>
      <rect class="cls-3" x="2.5" y="10.12" width="251" height="123" rx="4.44" ry="4.44"/>
      <path class="cls-1" d="M249.06,12.62c1.07,0,1.94.87,1.94,1.94v114.12c0,1.07-.87,1.94-1.94,1.94H6.94c-1.07,0-1.94-.87-1.94-1.94V14.56c0-1.07.87-1.94,1.94-1.94h242.12M249.06,7.62H6.94c-3.83,0-6.94,3.11-6.94,6.94v114.12c0,3.83,3.11,6.94,6.94,6.94h242.12c3.83,0,6.94-3.11,6.94-6.94V14.56c0-3.83-3.11-6.94-6.94-6.94h0Z"/>
    </g>
    <g>
      <line class="cls-4" x1="60.87" y1="74.63" x2="77.63" y2="74.63"/>
      <polygon class="cls-1" points="75 83.61 90.55 74.63 75 65.66 75 83.61"/>
    </g>
    <line class="cls-6" x1="61" y1="75.23" x2="61" y2="121.05"/>
    <line class="cls-4" x1="192.63" y1="75.23" x2="192.63" y2="121.05"/>
    <g>
      <line class="cls-4" x1="176.36" y1="74.63" x2="192.63" y2="74.63"/>
      <polygon class="cls-1" points="178.98 83.61 163.44 74.63 178.98 65.66 178.98 83.61"/>
    </g>
    <g>
      <line class="cls-5" x1="127.25" y1="38.61" x2="127.25" y2="31.73"/>
      <polygon class="cls-1" points="137.22 34.65 127.25 17.38 117.28 34.65 137.22 34.65"/>
    </g>
    <path class="cls-1" d="M93.61,70.15l32.48,18.56c.71.41,1.59.41,2.3,0l32.48-18.56c1.11-.63,1.5-2.05.87-3.16-.21-.36-.51-.66-.87-.87l-32.48-18.56c-.71-.41-1.59-.41-2.3,0l-32.48,18.56c-1.11.63-1.5,2.05-.87,3.16.21.36.51.66.87.87ZM127.25,52.24l27.8,15.89-27.8,15.89-27.8-15.89,27.8-15.89ZM161.74,78.56c.65,1.1.28,2.53-.83,3.17,0,0-.02,0-.03.01l-32.48,18.56c-.71.41-1.59.41-2.3,0l-32.49-18.56c-1.12-.64-1.5-2.07-.86-3.18.64-1.12,2.07-1.5,3.18-.86l31.32,17.9,31.32-17.9c1.11-.64,2.53-.26,3.17.85,0,0,0,0,0,0Z"/>
  </g>
</svg>