<?xml version="1.0" encoding="UTF-8"?>
<svg id="Layer_2" data-name="Layer 2" xmlns="http://www.w3.org/2000/svg" viewBox="0 0 211.54 256.03">
  <defs>
    <style>
      .cls-1 {
        fill: #505050;
      }

      .cls-1, .cls-2, .cls-3, .cls-4 {
        stroke-width: 0px;
      }

      .cls-2 {
        fill: #2a2a2a;
      }

      .cls-3 {
        fill: #404041;
      }

      .cls-4 {
        fill: #303030;
      }
    </style>
  </defs>
  <g id="Layer_1-2" data-name="Layer 1">
    <g>
      <path class="cls-3" d="m10.96,25.76h189.62c4.39,0,7.96,3.57,7.96,7.96v189.62c0,4.39-3.57,7.96-7.96,7.96H10.96c-4.39,0-7.96-3.57-7.96-7.96V33.72c0-4.39,3.57-7.96,7.96-7.96Z"/>
      <path class="cls-4" d="m200.58,28.76c2.73,0,4.96,2.22,4.96,4.96v189.62c0,2.73-2.22,4.96-4.96,4.96H10.96c-2.73,0-4.96-2.22-4.96-4.96V33.72c0-2.73,2.22-4.96,4.96-4.96h189.62m0-6H10.96c-6.05,0-10.96,4.91-10.96,10.96v189.62c0,6.05,4.91,10.96,10.96,10.96h189.62c6.05,0,10.96-4.91,10.96-10.96V33.72c0-6.05-4.91-10.96-10.96-10.96h0Z"/>
    </g>
    <path class="cls-2" d="m103.63,1.09l-29.26,39.99c-1.28,1.76-.03,4.23,2.14,4.23h58.52c2.18,0,3.43-2.47,2.14-4.23L107.92,1.09c-1.06-1.45-3.23-1.45-4.29,0Z"/>
    <path class="cls-2" d="m103.63,211.81l-29.26,39.99c-1.28,1.76-.03,4.23,2.14,4.23h58.52c2.18,0,3.43-2.47,2.14-4.23l-29.26-39.99c-1.06-1.45-3.23-1.45-4.29,0Z"/>
    <g>
      <path class="cls-1" d="m106.9,193.89l28.92-28.89c1.95-1.95,1.95-5.13,0-7.08l-7.23-7.23c-1.95-1.95-5.13-1.95-7.08,0l-5.71,5.71v-57.36s6.92,6.93,6.92,6.93c1.95,1.94,5.12,1.94,7.07,0l7.23-7.23c.95-.95,1.47-2.2,1.47-3.54,0-1.34-.52-2.59-1.47-3.54,0,0,0,0,0,0l-30.12-30.09c-.62-.62-1.63-.62-2.26,0l-28.92,28.89c-1.95,1.95-1.95,5.13,0,7.08l7.23,7.23c1.95,1.95,5.13,1.95,7.08,0l5.71-5.71v57.36s-6.92-6.93-6.92-6.93c-1.95-1.94-5.12-1.94-7.07,0l-7.23,7.23c-.95.95-1.47,2.2-1.47,3.54,0,1.34.52,2.59,1.47,3.54,0,0,0,0,0,0l30.12,30.09c.62.62,1.63.62,2.26,0Z"/>
      <rect class="cls-1" x="30.16" y="51.44" width="151.22" height="10.23" rx="5.11" ry="5.11"/>
      <rect class="cls-1" x="30.16" y="194.35" width="151.22" height="10.23" rx="5.11" ry="5.11"/>
    </g>
  </g>
</svg>