<?xml version="1.0" encoding="UTF-8"?>
<svg id="Layer_2" data-name="Layer 2" xmlns="http://www.w3.org/2000/svg" viewBox="0 0 215.83 261.22">
  <defs>
    <style>
      .cls-1 {
        fill: #6d6e7a;
      }

      .cls-1, .cls-2 {
        stroke-width: 0px;
      }

      .cls-2 {
        fill: #b4b4bc;
      }
    </style>
  </defs>
  <g id="Layer_1-2" data-name="Layer 1">
    <path class="cls-1" d="M11.18,26.28h193.47c4.48,0,8.12,3.64,8.12,8.12v193.47c0,4.48-3.64,8.12-8.12,8.12H11.18c-4.48,0-8.12-3.64-8.12-8.12V34.4c0-4.48,3.64-8.12,8.12-8.12Z"/>
    <path class="cls-2" d="M204.65,29.34c2.79,0,5.06,2.27,5.06,5.06v193.47c0,2.79-2.27,5.06-5.06,5.06H11.18c-2.79,0-5.06-2.27-5.06-5.06V34.4c0-2.79,2.27-5.06,5.06-5.06h193.47M204.65,23.22H11.18c-6.17,0-11.18,5.01-11.18,11.18v193.47c0,6.17,5.01,11.18,11.18,11.18h193.47c6.17,0,11.18-5.01,11.18-11.18V34.4c0-6.17-5.01-11.18-11.18-11.18h0Z"/>
    <path class="cls-2" d="M105.73,1.11l-29.85,40.8c-1.31,1.8-.03,4.32,2.18,4.32h59.71c2.22,0,3.5-2.52,2.18-4.32L110.11,1.11c-1.08-1.48-3.3-1.48-4.38,0Z"/>
    <path class="cls-2" d="M105.73,216.11l-29.85,40.8c-1.31,1.8-.03,4.32,2.18,4.32h59.71c2.22,0,3.5-2.52,2.18-4.32l-29.85-40.8c-1.08-1.48-3.3-1.48-4.38,0h.01Z"/>
    <g>
      <path class="cls-2" d="M106.83,67.09l-27.88,27.86c-1.88,1.88-1.88,4.95,0,6.82l6.97,6.97c1.88,1.88,4.95,1.88,6.82,0l5.51-5.51v55.31l-6.67-6.67c-1.88-1.88-4.94-1.87-6.81,0l-6.97,6.97c-.91.91-1.42,2.12-1.42,3.42s.5,2.5,1.42,3.41h0l29.05,29.02c.6.6,1.57.6,2.18,0l27.88-27.86c1.88-1.88,1.88-4.95,0-6.82l-6.97-6.97c-1.88-1.88-4.95-1.88-6.82,0l-5.51,5.51v-55.31l6.67,6.67c1.88,1.88,4.94,1.87,6.81,0l6.97-6.97c.91-.91,1.42-2.12,1.42-3.42s-.5-2.5-1.42-3.41h0l-29.05-29.02c-.6-.6-1.57-.6-2.18,0Z"/>
      <path class="cls-2" d="M31.47,199.52h0c0-2.72,3.4-4.93,7.59-4.93h137.72c4.19,0,7.59,2.21,7.59,4.93h0c0,2.72-3.4,4.93-7.59,4.93H39.05c-4.19,0-7.59-2.21-7.59-4.93Z"/>
      <path class="cls-2" d="M31.47,61.7h0c0-2.72,3.4-4.93,7.59-4.93h137.72c4.19,0,7.59,2.21,7.59,4.93h0c0,2.72-3.4,4.93-7.59,4.93H39.05c-4.19,0-7.59-2.21-7.59-4.93Z"/>
    </g>
  </g>
</svg>