<?xml version="1.0" encoding="UTF-8"?>
<svg id="Layer_2" data-name="Layer 2" xmlns="http://www.w3.org/2000/svg" viewBox="0 0 224.12 255.17">
  <defs>
    <style>
      .cls-1 {
        fill: #202020;
      }

      .cls-1, .cls-2 {
        stroke-width: 0px;
      }

      .cls-2 {
        fill: #404041;
      }
    </style>
  </defs>
  <g id="Layer_1-2" data-name="Layer 1">
    <g>
      <rect class="cls-1" x="3" y="18.11" width="218.12" height="218.12" rx="7.96" ry="7.96"/>
      <path class="cls-2" d="m213.16,21.11c2.73,0,4.96,2.22,4.96,4.96v202.2c0,2.73-2.22,4.96-4.96,4.96H10.96c-2.73,0-4.96-2.22-4.96-4.96V26.07c0-2.73,2.22-4.96,4.96-4.96h202.2m0-6H10.96C4.91,15.11,0,20.01,0,26.07v202.2c0,6.05,4.91,10.96,10.96,10.96h202.2c6.05,0,10.96-4.91,10.96-10.96V26.07c0-6.05-4.91-10.96-10.96-10.96h0Z"/>
    </g>
    <g>
      <path class="cls-1" d="m112.06,62.34c-2.48,0-4.49-2.02-4.49-4.49v-27.38h-15.01c-.64,0-.94-.44-1.03-.63s-.28-.69.1-1.21L111.12,1.97c.22-.3.56-.47.93-.47s.71.17.93.47l19.5,26.65c.38.52.2,1.02.1,1.21-.1.19-.39.63-1.03.63h-15.01v27.38c0,2.48-2.02,4.49-4.49,4.49Z"/>
      <path class="cls-2" d="m112.06,3.24l18.82,25.73h-15.83v28.88c0,1.65-1.34,2.99-2.99,2.99s-2.99-1.34-2.99-2.99v-28.88h-15.83L112.06,3.24m0-3.24c-.81,0-1.61.36-2.14,1.09l-19.5,26.65c-1.28,1.76-.03,4.23,2.14,4.23h13.51v25.88c0,3.31,2.68,5.99,5.99,5.99h0c3.31,0,5.99-2.68,5.99-5.99v-25.88h13.51c2.18,0,3.43-2.47,2.14-4.23L114.2,1.09c-.53-.73-1.34-1.09-2.14-1.09h0Z"/>
    </g>
    <g>
      <path class="cls-1" d="m112.06,253.67c-2.48,0-4.49-2.02-4.49-4.49v-51.83c0-2.48,2.02-4.49,4.49-4.49s4.49,2.02,4.49,4.49v51.83c0,2.48-2.02,4.49-4.49,4.49Z"/>
      <path class="cls-2" d="m112.06,194.35c1.65,0,2.99,1.34,2.99,2.99v51.83c0,1.65-1.34,2.99-2.99,2.99s-2.99-1.34-2.99-2.99v-51.83c0-1.65,1.34-2.99,2.99-2.99m0-3c-3.31,0-5.99,2.68-5.99,5.99v51.83c0,3.31,2.68,5.99,5.99,5.99s5.99-2.68,5.99-5.99v-51.83c0-3.31-2.68-5.99-5.99-5.99h0Z"/>
    </g>
  </g>
</svg>