<?xml version="1.0" encoding="UTF-8"?>
<svg id="Layer_2" data-name="Layer 2" xmlns="http://www.w3.org/2000/svg" viewBox="0 0 216.94 255.17">
  <defs>
    <style>
      .cls-1 {
        fill: #6d6e7a;
      }

      .cls-1, .cls-2, .cls-3, .cls-4 {
        stroke-width: 0px;
      }

      .cls-2 {
        fill: #9696a0;
      }

      .cls-3 {
        fill-rule: evenodd;
      }

      .cls-3, .cls-4 {
        fill: #b4b4bc;
      }
    </style>
  </defs>
  <g id="Layer_1-2" data-name="Layer 1">
    <path class="cls-1" d="M11.24,21.77h194.46c4.5,0,8.16,3.66,8.16,8.16v194.46c0,4.5-3.66,8.16-8.16,8.16H11.24c-4.5,0-8.16-3.66-8.16-8.16V29.94c0-4.5,3.66-8.16,8.16-8.16Z"/>
    <path class="cls-4" d="M205.7,24.85c2.8,0,5.09,2.28,5.09,5.09v194.46c0,2.8-2.28,5.09-5.09,5.09H11.24c-2.8,0-5.09-2.28-5.09-5.09V29.94c0-2.8,2.28-5.09,5.09-5.09h194.46M205.7,18.7H11.24c-6.2,0-11.24,5.04-11.24,11.24v194.46c0,6.2,5.04,11.24,11.24,11.24h194.46c6.2,0,11.24-5.04,11.24-11.24V29.94c0-6.2-5.04-11.24-11.24-11.24h0Z"/>
    <g>
      <rect class="cls-4" x="54.45" width="108.05" height="19.53" rx="4.07" ry="4.07"/>
      <path class="cls-2" d="M108.02,2.53l-28.95,10.03c-1.46.51-1.09,2.66.45,2.66h57.89c1.54,0,1.91-2.16.45-2.66l-28.95-10.03c-.29-.1-.61-.1-.9,0Z"/>
    </g>
    <g>
      <rect class="cls-4" x="54.45" y="235.64" width="108.05" height="19.53" rx="4.07" ry="4.07"/>
      <path class="cls-2" d="M108.02,238.17l-28.95,10.03c-1.46.51-1.09,2.66.45,2.66h57.89c1.54,0,1.91-2.16.45-2.66l-28.95-10.03c-.29-.1-.61-.1-.9,0Z"/>
    </g>
    <g id="SVGRepo_iconCarrier" data-name="SVGRepo iconCarrier">
      <g>
        <path class="cls-3" d="M167.23,185.62l11.18,16.41-11.63,17.11h9.05l7.77-11.45,7.84,11.45h9l-11.63-17.11,11.18-16.41h-9.07l-7.32,10.8-7.34-10.8h-9.03Z"/>
        <path class="cls-3" d="M16.5,35.19l12.78,19.4v14.12h8.65v-14.12l12.78-19.4h-9.48l-7.63,11.95-7.63-11.95h-9.46Z"/>
        <path class="cls-3" d="M29.37,86.7v119.57h119.57v-9.2H38.57v-110.37h-9.2Z"/>
      </g>
    </g>
  </g>
</svg>