<?xml version="1.0" encoding="UTF-8"?>
<svg id="Layer_2" data-name="Layer 2" xmlns="http://www.w3.org/2000/svg" viewBox="0 0 224.12 256">
  <defs>
    <style>
      .cls-1 {
        fill: #202020;
      }

      .cls-1, .cls-2, .cls-3, .cls-4 {
        stroke-width: 0px;
      }

      .cls-2 {
        fill: #6d6e70;
      }

      .cls-3 {
        fill: #101010;
      }

      .cls-4 {
        fill: #404041;
      }
    </style>
  </defs>
  <g id="Layer_1-2" data-name="Layer 1">
    <g>
      <rect class="cls-1" x="3" y="18.94" width="218.12" height="218.12" rx="7.96" ry="7.96"/>
      <path class="cls-4" d="m213.16,21.94c2.73,0,4.96,2.22,4.96,4.96v202.2c0,2.73-2.22,4.96-4.96,4.96H10.96c-2.73,0-4.96-2.22-4.96-4.96V26.9c0-2.73,2.22-4.96,4.96-4.96h202.2m0-6H10.96C4.91,15.94,0,20.85,0,26.9v202.2c0,6.05,4.91,10.96,10.96,10.96h202.2c6.05,0,10.96-4.91,10.96-10.96V26.9c0-6.05-4.91-10.96-10.96-10.96h0Z"/>
    </g>
    <rect class="cls-3" x="32.28" y="48.22" width="159.55" height="159.55" rx="10.96" ry="10.96"/>
    <g>
      <rect class="cls-3" x="104.16" y="204.53" width="15.8" height="48.47" rx="3.77" ry="3.77"/>
      <path class="cls-4" d="m116.19,207.53c.43,0,.77.35.77.77v40.92c0,.43-.35.77-.77.77h-8.25c-.43,0-.77-.35-.77-.77v-40.92c0-.43.35-.77.77-.77h8.25m0-6h-8.25c-3.74,0-6.77,3.03-6.77,6.77v40.92c0,3.74,3.03,6.77,6.77,6.77h8.25c3.74,0,6.77-3.03,6.77-6.77v-40.92c0-3.74-3.03-6.77-6.77-6.77h0Z"/>
    </g>
    <g>
      <path class="cls-3" d="m107.59,56.87c-1.64,0-2.97-1.33-2.97-2.97v-13.22h-19.22c-.26,0-.45-.12-.56-.35s-.1-.45.05-.66L111.55,3.26c.16-.21.36-.26.51-.26s.35.04.51.26l26.65,36.42c.15.21.17.43.05.66-.12.23-.31.35-.56.35h-19.22v13.22c0,1.64-1.33,2.97-2.97,2.97h-8.93Z"/>
      <path class="cls-4" d="m112.06,7.64l21.98,30.04h-17.55v16.18s-8.86,0-8.86,0v-16.18h-17.55l21.98-30.04m0-7.64c-1.1,0-2.21.5-2.93,1.49l-26.65,36.42c-1.76,2.4-.04,5.78,2.93,5.78h16.22v10.22c0,3.29,2.67,5.97,5.97,5.97h8.93c3.29,0,5.97-2.67,5.97-5.97v-10.22h16.22c2.97,0,4.69-3.38,2.93-5.78L114.99,1.49c-.73-.99-1.83-1.49-2.93-1.49h0Z"/>
    </g>
    <g id="SVGRepo_iconCarrier" data-name="SVGRepo iconCarrier">
      <g>
        <g>
          <path class="cls-4" d="m59.75,72.43h19.02c1.8,0,3.26,1.46,3.26,3.26v19.02c0,1.8-1.46,3.26-3.26,3.26h-19.02c-1.8,0-3.26-1.46-3.26-3.26v-19.02c0-1.8,1.46-3.26,3.26-3.26Z"/>
          <path class="cls-2" d="m78.77,73.93c.47,0,.91.18,1.24.51.33.33.51.77.51,1.24v19.02c0,.97-.79,1.76-1.76,1.76h-19.02c-.97,0-1.76-.79-1.76-1.76v-19.02c0-.97.79-1.76,1.76-1.76h19.02m0-3h-19.02c-2.63,0-4.76,2.13-4.76,4.76v19.02c0,2.63,2.13,4.76,4.76,4.76h19.02c2.63,0,4.76-2.13,4.76-4.76v-19.02c0-2.63-2.13-4.76-4.76-4.76h0Z"/>
        </g>
        <g>
          <rect class="cls-4" x="56.49" y="158.03" width="25.53" height="25.53" rx="3.26" ry="3.26"/>
          <path class="cls-2" d="m78.77,159.53c.47,0,.91.18,1.24.51.33.33.51.77.51,1.24v19.02c0,.97-.79,1.76-1.76,1.76h-19.02c-.97,0-1.76-.79-1.76-1.76v-19.02c0-.97.79-1.76,1.76-1.76h19.02m0-3h-19.02c-2.63,0-4.76,2.13-4.76,4.76v19.02c0,2.63,2.13,4.76,4.76,4.76h19.02c2.63,0,4.76-2.13,4.76-4.76v-19.02c0-2.63-2.13-4.76-4.76-4.76h0Z"/>
        </g>
        <g>
          <path class="cls-4" d="m145.35,72.43h19.02c1.8,0,3.26,1.46,3.26,3.26v19.02c0,1.8-1.46,3.26-3.26,3.26h-19.02c-1.8,0-3.26-1.46-3.26-3.26v-19.02c0-1.8,1.46-3.26,3.26-3.26Z"/>
          <path class="cls-2" d="m164.37,73.93c.47,0,.91.18,1.24.51.33.33.51.77.51,1.24v19.02c0,.97-.79,1.76-1.76,1.76h-19.02c-.97,0-1.76-.79-1.76-1.76v-19.02c0-.97.79-1.76,1.76-1.76h19.02m0-3h-19.02c-2.63,0-4.76,2.13-4.76,4.76v19.02c0,2.63,2.13,4.76,4.76,4.76h19.02c2.63,0,4.76-2.13,4.76-4.76v-19.02c0-2.63-2.13-4.76-4.76-4.76h0Z"/>
        </g>
        <g>
          <path class="cls-4" d="m145.35,158.03h19.02c1.8,0,3.25,1.46,3.25,3.25v19.02c0,1.8-1.46,3.26-3.26,3.26h-19.02c-1.8,0-3.26-1.46-3.26-3.26v-19.02c0-1.8,1.46-3.26,3.26-3.26Z"/>
          <path class="cls-2" d="m164.37,159.53c.47,0,.91.18,1.24.51.33.33.51.77.51,1.24v19.02c0,.97-.79,1.76-1.76,1.76h-19.02c-.97,0-1.76-.79-1.76-1.76v-19.02c0-.97.79-1.76,1.76-1.76h19.02m0-3h-19.02c-2.63,0-4.76,2.13-4.76,4.76v19.02c0,2.63,2.13,4.76,4.76,4.76h19.02c2.63,0,4.76-2.13,4.76-4.76v-19.02c0-2.63-2.13-4.76-4.76-4.76h0Z"/>
        </g>
        <g>
          <path class="cls-4" d="m112.06,88.46c-1.79,0-3.26-1.46-3.26-3.26s1.46-3.26,3.26-3.26,3.26,1.46,3.26,3.26-1.46,3.26-3.26,3.26Z"/>
          <path class="cls-2" d="m112.06,83.44c.97,0,1.76.79,1.76,1.76s-.79,1.76-1.76,1.76-1.76-.79-1.76-1.76.79-1.76,1.76-1.76m0-3c-2.63,0-4.76,2.13-4.76,4.76s2.13,4.76,4.76,4.76,4.76-2.13,4.76-4.76-2.13-4.76-4.76-4.76h0Z"/>
        </g>
        <g>
          <circle class="cls-4" cx="93.04" cy="85.2" r="3.26"/>
          <path class="cls-2" d="m93.04,83.44c.97,0,1.76.79,1.76,1.76s-.79,1.76-1.76,1.76-1.76-.79-1.76-1.76.79-1.76,1.76-1.76m0-3c-2.63,0-4.76,2.13-4.76,4.76s2.13,4.76,4.76,4.76,4.76-2.13,4.76-4.76-2.13-4.76-4.76-4.76h0Z"/>
        </g>
        <g>
          <path class="cls-4" d="m131.08,88.46c-1.79,0-3.26-1.46-3.26-3.26s1.46-3.26,3.26-3.26,3.25,1.46,3.25,3.26-1.46,3.26-3.25,3.26Z"/>
          <path class="cls-2" d="m131.08,83.44c.97,0,1.76.79,1.76,1.76s-.79,1.76-1.76,1.76-1.76-.79-1.76-1.76.79-1.76,1.76-1.76m0-3c-2.63,0-4.76,2.13-4.76,4.76s2.13,4.76,4.76,4.76,4.76-2.13,4.76-4.76-2.13-4.76-4.76-4.76h0Z"/>
        </g>
        <g>
          <path class="cls-4" d="m112.06,174.05c-1.79,0-3.26-1.46-3.26-3.25s1.46-3.26,3.26-3.26,3.26,1.46,3.26,3.26-1.46,3.25-3.26,3.25Z"/>
          <path class="cls-2" d="m112.06,169.04c.97,0,1.76.79,1.76,1.76s-.79,1.76-1.76,1.76-1.76-.79-1.76-1.76.79-1.76,1.76-1.76m0-3c-2.63,0-4.76,2.13-4.76,4.76s2.13,4.76,4.76,4.76,4.76-2.13,4.76-4.76-2.13-4.76-4.76-4.76h0Z"/>
        </g>
        <g>
          <path class="cls-4" d="m69.26,131.26c-1.8,0-3.26-1.46-3.26-3.26s1.46-3.26,3.26-3.26,3.26,1.46,3.26,3.26-1.46,3.26-3.26,3.26Z"/>
          <path class="cls-2" d="m69.26,126.24c.97,0,1.76.79,1.76,1.76s-.79,1.76-1.76,1.76-1.76-.79-1.76-1.76.79-1.76,1.76-1.76m0-3c-2.63,0-4.76,2.13-4.76,4.76s2.13,4.76,4.76,4.76,4.76-2.13,4.76-4.76-2.13-4.76-4.76-4.76h0Z"/>
        </g>
        <g>
          <path class="cls-4" d="m69.26,150.28c-1.8,0-3.26-1.46-3.26-3.25s1.46-3.26,3.26-3.26,3.26,1.46,3.26,3.26-1.46,3.25-3.26,3.25Z"/>
          <path class="cls-2" d="m69.26,145.27c.97,0,1.76.79,1.76,1.76s-.79,1.76-1.76,1.76-1.76-.79-1.76-1.76.79-1.76,1.76-1.76m0-3c-2.63,0-4.76,2.13-4.76,4.76s2.13,4.76,4.76,4.76,4.76-2.13,4.76-4.76-2.13-4.76-4.76-4.76h0Z"/>
        </g>
        <g>
          <path class="cls-4" d="m69.26,112.23c-1.8,0-3.26-1.46-3.26-3.26s1.46-3.26,3.26-3.26,3.26,1.46,3.26,3.26-1.46,3.26-3.26,3.26Z"/>
          <path class="cls-2" d="m69.26,107.22c.97,0,1.76.79,1.76,1.76s-.79,1.76-1.76,1.76-1.76-.79-1.76-1.76.79-1.76,1.76-1.76m0-3c-2.63,0-4.76,2.13-4.76,4.76s2.13,4.76,4.76,4.76,4.76-2.13,4.76-4.76-2.13-4.76-4.76-4.76h0Z"/>
        </g>
        <g>
          <path class="cls-4" d="m154.86,131.26c-1.79,0-3.26-1.46-3.26-3.26s1.46-3.26,3.26-3.26,3.26,1.46,3.26,3.26-1.46,3.26-3.26,3.26Z"/>
          <path class="cls-2" d="m154.86,126.24c.97,0,1.76.79,1.76,1.76s-.79,1.76-1.76,1.76-1.76-.79-1.76-1.76.79-1.76,1.76-1.76m0-3c-2.63,0-4.76,2.13-4.76,4.76s2.13,4.76,4.76,4.76,4.76-2.13,4.76-4.76-2.13-4.76-4.76-4.76h0Z"/>
        </g>
        <g>
          <path class="cls-4" d="m154.86,150.28c-1.79,0-3.26-1.46-3.26-3.25s1.46-3.26,3.26-3.26,3.26,1.46,3.26,3.26-1.46,3.25-3.26,3.25Z"/>
          <path class="cls-2" d="m154.86,145.27c.97,0,1.76.79,1.76,1.76s-.79,1.76-1.76,1.76-1.76-.79-1.76-1.76.79-1.76,1.76-1.76m0-3c-2.63,0-4.76,2.13-4.76,4.76s2.13,4.76,4.76,4.76,4.76-2.13,4.76-4.76-2.13-4.76-4.76-4.76h0Z"/>
        </g>
        <g>
          <circle class="cls-4" cx="154.86" cy="108.98" r="3.26"/>
          <path class="cls-2" d="m154.86,107.22c.97,0,1.76.79,1.76,1.76s-.79,1.76-1.76,1.76-1.76-.79-1.76-1.76.79-1.76,1.76-1.76m0-3c-2.63,0-4.76,2.13-4.76,4.76s2.13,4.76,4.76,4.76,4.76-2.13,4.76-4.76-2.13-4.76-4.76-4.76h0Z"/>
        </g>
        <g>
          <path class="cls-4" d="m93.04,174.05c-1.79,0-3.26-1.46-3.26-3.25s1.46-3.26,3.26-3.26,3.26,1.46,3.26,3.26-1.46,3.25-3.26,3.25Z"/>
          <path class="cls-2" d="m93.04,169.04c.97,0,1.76.79,1.76,1.76s-.79,1.76-1.76,1.76-1.76-.79-1.76-1.76.79-1.76,1.76-1.76m0-3c-2.63,0-4.76,2.13-4.76,4.76s2.13,4.76,4.76,4.76,4.76-2.13,4.76-4.76-2.13-4.76-4.76-4.76h0Z"/>
        </g>
        <g>
          <path class="cls-4" d="m131.08,174.05c-1.79,0-3.26-1.46-3.26-3.25s1.46-3.26,3.26-3.26,3.25,1.46,3.25,3.26-1.46,3.25-3.25,3.25Z"/>
          <path class="cls-2" d="m131.08,169.04c.97,0,1.76.79,1.76,1.76s-.79,1.76-1.76,1.76-1.76-.79-1.76-1.76.79-1.76,1.76-1.76m0-3c-2.63,0-4.76,2.13-4.76,4.76s2.13,4.76,4.76,4.76,4.76-2.13,4.76-4.76-2.13-4.76-4.76-4.76h0Z"/>
        </g>
      </g>
    </g>
  </g>
</svg>