<?xml version="1.0" encoding="UTF-8"?>
<svg id="Layer_2" data-name="Layer 2" xmlns="http://www.w3.org/2000/svg" viewBox="0 0 211.54 256.03">
  <defs>
    <style>
      .cls-1 {
        fill: #252525;
      }

      .cls-1, .cls-2, .cls-3, .cls-4 {
        stroke-width: 0px;
      }

      .cls-2 {
        fill: #1a1a1a;
      }

      .cls-3 {
        fill: #202020;
      }

      .cls-4 {
        fill: #404041;
      }
    </style>
  </defs>
  <g id="Layer_1-2" data-name="Layer 1">
    <g>
      <path class="cls-3" d="m10.96,25.76h189.62c4.39,0,7.96,3.57,7.96,7.96v189.62c0,4.39-3.57,7.96-7.96,7.96H10.96c-4.39,0-7.96-3.57-7.96-7.96V33.72c0-4.39,3.57-7.96,7.96-7.96Z"/>
      <path class="cls-4" d="m200.58,28.76c2.73,0,4.96,2.22,4.96,4.96v189.62c0,2.73-2.22,4.96-4.96,4.96H10.96c-2.73,0-4.96-2.22-4.96-4.96V33.72c0-2.73,2.22-4.96,4.96-4.96h189.62m0-6H10.96c-6.05,0-10.96,4.91-10.96,10.96v189.62c0,6.05,4.91,10.96,10.96,10.96h189.62c6.05,0,10.96-4.91,10.96-10.96V33.72c0-6.05-4.91-10.96-10.96-10.96h0Z"/>
    </g>
    <rect class="cls-2" x="28.08" y="50.79" width="155.39" height="155.39" rx="5.56" ry="5.56"/>
    <path class="cls-4" d="m103.63,1.09l-29.26,39.99c-1.28,1.76-.03,4.23,2.14,4.23h58.52c2.18,0,3.43-2.47,2.14-4.23L107.92,1.09c-1.06-1.45-3.23-1.45-4.29,0Z"/>
    <path class="cls-4" d="m103.63,211.81l-29.26,39.99c-1.28,1.76-.03,4.23,2.14,4.23h58.52c2.18,0,3.43-2.47,2.14-4.23l-29.26-39.99c-1.06-1.45-3.23-1.45-4.29,0Z"/>
    <g id="SVGRepo_iconCarrier" data-name="SVGRepo iconCarrier">
      <path class="cls-1" d="m117.72,73.31h-23.91c-2.27-6.35-8.28-10.94-15.4-10.94-9.06,0-16.42,7.36-16.42,16.42,0,4.68,1.99,8.89,5.14,11.88l-15.2,70.93c-6.81,2-11.83,8.23-11.83,15.68,0,9.06,7.36,16.42,16.42,16.42,7.12,0,13.14-4.59,15.4-10.94h67.68c2.27,6.36,8.28,10.94,15.41,10.94,9.05,0,16.42-7.36,16.42-16.42,0-7.45-5.02-13.68-11.84-15.68l-15.2-70.93c3.15-2.99,5.15-7.2,5.15-11.88,0-9.05-7.36-16.42-16.42-16.42-7.12,0-13.14,4.59-15.41,10.94Zm0,10.94c2.27,6.36,8.28,10.94,15.41,10.94.35,0,.68-.08,1.02-.1l14.38,67.11c-4.17,1.8-7.39,5.3-8.92,9.6h-67.68c-1.53-4.3-4.75-7.8-8.92-9.6l14.38-67.11c.34.02.67.1,1.03.1,7.12,0,13.14-4.59,15.4-10.94h23.91Z"/>
    </g>
  </g>
</svg>