<?xml version="1.0" encoding="UTF-8"?>
<svg id="Layer_2" data-name="Layer 2" xmlns="http://www.w3.org/2000/svg" viewBox="0 0 211.54 256.03">
  <defs>
    <style>
      .cls-1 {
        fill: #585858;
      }

      .cls-1, .cls-2, .cls-3, .cls-4 {
        stroke-width: 0px;
      }

      .cls-2 {
        fill: #2a2a2a;
      }

      .cls-3 {
        fill: #404041;
      }

      .cls-4 {
        fill: #303030;
      }
    </style>
  </defs>
  <g id="Layer_1-2" data-name="Layer 1">
    <g>
      <path class="cls-3" d="M10.96,25.76h189.62c4.39,0,7.96,3.57,7.96,7.96v189.62c0,4.39-3.57,7.96-7.96,7.96H10.96c-4.39,0-7.96-3.57-7.96-7.96V33.72c0-4.39,3.57-7.96,7.96-7.96Z"/>
      <path class="cls-4" d="M200.58,28.76c2.73,0,4.96,2.22,4.96,4.96v189.62c0,2.73-2.22,4.96-4.96,4.96H10.96c-2.73,0-4.96-2.22-4.96-4.96V33.72c0-2.73,2.22-4.96,4.96-4.96h189.62M200.58,22.76H10.96c-6.05,0-10.96,4.91-10.96,10.96v189.62c0,6.05,4.91,10.96,10.96,10.96h189.62c6.05,0,10.96-4.91,10.96-10.96V33.72c0-6.05-4.91-10.96-10.96-10.96h0Z"/>
    </g>
    <path class="cls-2" d="M103.63,1.09l-29.26,39.99c-1.28,1.76-.03,4.23,2.14,4.23h58.52c2.18,0,3.43-2.47,2.14-4.23L107.92,1.09c-1.06-1.45-3.23-1.45-4.29,0Z"/>
    <path class="cls-2" d="M103.63,211.81l-29.26,39.99c-1.28,1.76-.03,4.23,2.14,4.23h58.52c2.18,0,3.43-2.47,2.14-4.23l-29.26-39.99c-1.06-1.45-3.23-1.45-4.29,0Z"/>
    <g id="SVGRepo_iconCarrier" data-name="SVGRepo iconCarrier">
      <path class="cls-1" d="M117.12,105.31v-37.82c0-6.27,5.08-11.35,11.35-11.35s11.35,5.08,11.35,11.35v10.43l33.59-33.59c4.43-4.43,11.62-4.42,16.05.01,4.42,4.43,4.42,11.61,0,16.04l-33.59,33.59h10.43c6.27,0,11.35,5.08,11.35,11.35s-5.08,11.35-11.35,11.35h-37.83c-.37,0-.75-.02-1.12-.06-.17-.02-.33-.05-.5-.07-.2-.03-.4-.05-.6-.09-.19-.04-.37-.09-.55-.14-.18-.04-.35-.08-.52-.13-.18-.05-.35-.12-.53-.18-.18-.06-.35-.12-.52-.19-.16-.07-.32-.15-.47-.22-.18-.08-.36-.16-.53-.26-.15-.08-.29-.17-.44-.26-.17-.1-.35-.2-.52-.31-.16-.11-.3-.22-.46-.34-.15-.11-.29-.21-.44-.33-.27-.22-.53-.46-.77-.7-.02-.02-.04-.03-.06-.05s-.03-.04-.05-.06c-.24-.25-.48-.51-.7-.77-.11-.14-.21-.28-.32-.43-.11-.15-.23-.3-.34-.47-.11-.17-.21-.34-.31-.51-.09-.15-.18-.29-.26-.44-.09-.17-.17-.35-.26-.53-.07-.16-.15-.31-.22-.47-.07-.17-.13-.35-.19-.53-.06-.17-.13-.34-.18-.52-.05-.18-.09-.36-.14-.54-.04-.18-.1-.36-.13-.54-.04-.21-.07-.42-.1-.63-.02-.16-.05-.31-.07-.47-.04-.37-.06-.75-.06-1.13ZM94.36,149.59c-.02-.16-.05-.31-.07-.47-.03-.21-.05-.42-.1-.63-.04-.18-.09-.36-.13-.54-.04-.18-.08-.36-.14-.54-.05-.18-.12-.35-.18-.52-.06-.18-.12-.35-.19-.53-.07-.16-.15-.32-.22-.48-.08-.18-.16-.36-.26-.53-.08-.15-.17-.29-.26-.44-.1-.17-.2-.35-.31-.51-.11-.16-.23-.31-.34-.47-.11-.14-.21-.29-.32-.43-.22-.27-.46-.53-.7-.77-.02-.02-.03-.04-.05-.06s-.04-.03-.06-.05c-.25-.24-.5-.48-.77-.7-.14-.12-.29-.22-.44-.33-.15-.11-.3-.23-.45-.33-.17-.11-.35-.21-.52-.32-.14-.09-.28-.18-.43-.25-.18-.09-.36-.17-.54-.26-.16-.07-.31-.15-.47-.22-.18-.07-.35-.13-.53-.2-.17-.06-.34-.13-.52-.18-.18-.05-.36-.09-.54-.14-.18-.04-.35-.09-.54-.13-.21-.04-.42-.07-.63-.1-.16-.02-.31-.05-.47-.07-.37-.04-.75-.06-1.13-.06h-37.82c-6.27,0-11.35,5.08-11.35,11.35s5.08,11.35,11.35,11.35h10.43l-33.59,33.59c-4.43,4.43-4.42,11.62.01,16.05,4.43,4.42,11.61,4.42,16.04,0l33.59-33.59v10.43c0,6.27,5.08,11.35,11.35,11.35s11.35-5.08,11.35-11.35v-37.82c0-.38-.02-.75-.06-1.13ZM155.86,162.06h10.43c6.27,0,11.35-5.08,11.35-11.35s-5.08-11.35-11.35-11.35h-37.82c-.38,0-.75.02-1.13.06-.16.02-.31.05-.47.07-.21.03-.42.05-.63.1-.18.04-.36.09-.54.13-.18.05-.36.09-.54.14-.18.05-.34.12-.51.18-.18.06-.36.12-.53.2-.16.07-.31.14-.47.22-.18.08-.36.17-.54.26-.15.08-.29.17-.43.25-.17.1-.35.2-.52.32-.16.1-.3.22-.45.33-.15.11-.3.21-.44.33-.27.22-.53.46-.77.7-.02.02-.04.03-.06.05s-.03.04-.05.06c-.24.25-.48.51-.7.77-.11.14-.21.28-.32.43-.11.15-.23.3-.34.47-.11.17-.21.34-.31.51-.09.15-.18.29-.26.44-.09.17-.17.35-.26.53-.07.16-.15.31-.22.47-.07.17-.13.35-.19.53-.06.17-.13.34-.18.52-.05.18-.09.36-.14.54-.04.18-.1.36-.13.54-.04.21-.07.42-.1.63-.02.16-.05.31-.07.47-.04.37-.06.75-.06,1.13v37.82c0,6.27,5.08,11.35,11.35,11.35s11.35-5.08,11.35-11.35v-10.43l33.59,33.59c4.43,4.43,11.62,4.43,16.05,0,4.43-4.43,4.43-11.61,0-16.04l-33.59-33.59ZM94.42,67.49c0-6.27-5.08-11.35-11.35-11.35s-11.35,5.08-11.35,11.35v10.43l-33.59-33.59c-4.44-4.43-11.62-4.42-16.05.01-4.42,4.43-4.42,11.61,0,16.04l33.59,33.59h-10.43c-6.27,0-11.35,5.08-11.35,11.35s5.08,11.35,11.35,11.35h37.83c.37,0,.75-.02,1.12-.06.17-.02.33-.05.5-.07.2-.03.4-.05.6-.09.19-.04.37-.09.55-.14.18-.04.35-.08.52-.13.18-.05.35-.12.53-.18.17-.06.35-.12.52-.19.16-.07.32-.15.48-.22.18-.08.36-.16.53-.26.15-.08.29-.17.44-.26.17-.1.35-.2.52-.31.16-.1.3-.22.45-.33.15-.11.3-.21.44-.33.27-.22.53-.46.77-.7.02-.02.04-.03.06-.05s.03-.04.05-.06c.24-.25.48-.51.7-.77.11-.14.21-.28.32-.43.11-.15.23-.3.34-.47.11-.17.21-.34.31-.51.09-.15.18-.29.26-.44.09-.17.17-.35.26-.53.07-.16.15-.31.22-.48.07-.17.13-.35.19-.53.06-.17.13-.34.18-.52.05-.18.09-.36.14-.54.04-.18.1-.36.13-.54.04-.21.07-.42.1-.63.02-.16.05-.31.07-.47.04-.37.06-.75.06-1.13v-37.82Z"/>
    </g>
  </g>
</svg>