<?xml version="1.0" encoding="UTF-8"?>
<svg id="Layer_2" data-name="Layer 2" xmlns="http://www.w3.org/2000/svg" viewBox="0 0 211.54 256.03">
  <defs>
    <style>
      .cls-1 {
        fill: #606060;
      }

      .cls-1, .cls-2, .cls-3, .cls-4, .cls-5 {
        stroke-width: 0px;
      }

      .cls-2 {
        fill: #909090;
      }

      .cls-3 {
        fill: #2a2a2a;
      }

      .cls-4 {
        fill: #404041;
      }

      .cls-5 {
        fill: #303030;
      }
    </style>
  </defs>
  <g id="Layer_1-2" data-name="Layer 1">
    <g>
      <path class="cls-4" d="M10.96,25.76h189.62c4.39,0,7.96,3.57,7.96,7.96v189.62c0,4.39-3.57,7.96-7.96,7.96H10.96c-4.39,0-7.96-3.57-7.96-7.96V33.72c0-4.39,3.57-7.96,7.96-7.96Z"/>
      <path class="cls-5" d="M200.58,28.76c2.73,0,4.96,2.22,4.96,4.96v189.62c0,2.73-2.22,4.96-4.96,4.96H10.96c-2.73,0-4.96-2.22-4.96-4.96V33.72c0-2.73,2.22-4.96,4.96-4.96h189.62M200.58,22.76H10.96c-6.05,0-10.96,4.91-10.96,10.96v189.62c0,6.05,4.91,10.96,10.96,10.96h189.62c6.05,0,10.96-4.91,10.96-10.96V33.72c0-6.05-4.91-10.96-10.96-10.96h0Z"/>
    </g>
    <path class="cls-3" d="M103.63,1.09l-29.26,39.99c-1.28,1.76-.03,4.23,2.14,4.23h58.52c2.18,0,3.43-2.47,2.14-4.23L107.92,1.09c-1.06-1.45-3.23-1.45-4.29,0Z"/>
    <path class="cls-3" d="M103.63,211.81l-29.26,39.99c-1.28,1.76-.03,4.23,2.14,4.23h58.52c2.18,0,3.43-2.47,2.14-4.23l-29.26-39.99c-1.06-1.45-3.23-1.45-4.29,0Z"/>
    <g>
      <path class="cls-1" d="M175.41,203.62c-1.59,0-3.09-.62-4.22-1.75l-38.57-38.58v20.43c0,3.29-2.68,5.96-5.96,5.96s-5.96-2.68-5.96-5.96v-34.82c0-3.29,2.68-5.96,5.96-5.96h34.82c3.29,0,5.96,2.68,5.96,5.96s-2.68,5.96-5.96,5.96h-20.43l38.58,38.57c1.13,1.13,1.75,2.63,1.75,4.22s-.62,3.09-1.75,4.22-2.63,1.75-4.22,1.75ZM36.13,203.62c-1.59,0-3.09-.62-4.22-1.75-1.13-1.13-1.75-2.63-1.75-4.22s.62-3.09,1.75-4.22l38.58-38.57h-20.43c-3.29,0-5.96-2.68-5.96-5.96s2.68-5.96,5.96-5.96h34.82c3.29,0,5.96,2.68,5.96,5.96v34.82c0,3.29-2.68,5.96-5.96,5.96s-5.96-2.68-5.96-5.96v-20.43l-38.57,38.58c-1.13,1.13-2.63,1.75-4.22,1.75ZM126.66,113.08c-3.29,0-5.96-2.68-5.96-5.96v-34.82c0-3.29,2.68-5.96,5.96-5.96s5.96,2.68,5.96,5.96v20.43l38.57-38.58c1.13-1.13,2.63-1.75,4.22-1.75s3.09.62,4.22,1.75c1.13,1.13,1.75,2.63,1.75,4.22s-.62,3.09-1.75,4.22l-38.58,38.57h20.43c3.29,0,5.96,2.68,5.96,5.96s-2.68,5.96-5.96,5.96h-34.82ZM50.06,113.08c-3.29,0-5.96-2.68-5.96-5.96s2.68-5.96,5.96-5.96h20.43L31.91,62.59c-2.33-2.33-2.33-6.11,0-8.44,1.13-1.13,2.63-1.75,4.22-1.75s3.09.62,4.22,1.75l38.57,38.58v-20.43c0-3.29,2.68-5.96,5.96-5.96s5.96,2.68,5.96,5.96v34.82c0,3.29-2.68,5.96-5.96,5.96h-34.82Z"/>
      <path class="cls-2" d="M175.41,53.4c1.33,0,2.57.52,3.51,1.46,1.94,1.94,1.94,5.09,0,7.03l-36.87,36.86-3.42,3.41h22.84c2.74,0,4.96,2.23,4.96,4.96s-2.23,4.96-4.96,4.96h-34.82c-2.74,0-4.96-2.23-4.96-4.96v-34.82c0-2.74,2.23-4.96,4.96-4.96s4.96,2.23,4.96,4.96v22.84l3.41-3.42,36.86-36.87c.94-.94,2.19-1.46,3.51-1.46M36.13,53.4c1.33,0,2.57.52,3.51,1.46l36.86,36.87,3.41,3.42v-22.84c0-2.74,2.23-4.96,4.96-4.96s4.96,2.23,4.96,4.96v34.82c0,2.74-2.23,4.96-4.96,4.96h-34.82c-2.74,0-4.96-2.23-4.96-4.96s2.23-4.96,4.96-4.96h22.84l-3.42-3.41-36.87-36.86c-.94-.94-1.46-2.19-1.46-3.51s.52-2.57,1.46-3.51,2.19-1.46,3.51-1.46M161.49,143.94c2.74,0,4.96,2.23,4.96,4.96s-2.23,4.96-4.96,4.96h-22.84l3.42,3.41,36.87,36.86c1.94,1.94,1.94,5.09,0,7.03-.94.94-2.19,1.46-3.51,1.46s-2.57-.52-3.51-1.45l-36.86-36.87-3.41-3.42v22.84c0,2.74-2.23,4.96-4.96,4.96s-4.96-2.23-4.96-4.96v-34.82c0-2.74,2.23-4.96,4.96-4.96h34.82M84.88,143.94c2.74,0,4.96,2.23,4.96,4.96v34.82c0,2.74-2.23,4.96-4.96,4.96s-4.96-2.23-4.96-4.96v-22.84l-3.41,3.42-36.86,36.87c-.94.94-2.19,1.46-3.51,1.46s-2.57-.52-3.51-1.46c-1.94-1.94-1.94-5.09,0-7.03l36.87-36.86,3.42-3.41h-22.84c-2.74,0-4.96-2.23-4.96-4.96s2.23-4.96,4.96-4.96h34.82M175.41,51.4c-1.78,0-3.57.68-4.93,2.04l-36.86,36.87v-18.01c0-3.85-3.12-6.96-6.96-6.96s-6.96,3.12-6.96,6.96v34.82c0,3.85,3.12,6.96,6.96,6.96h34.82c3.85,0,6.96-3.12,6.96-6.96s-3.12-6.96-6.96-6.96h-18.01l36.87-36.86c2.72-2.72,2.72-7.13,0-9.85-1.36-1.36-3.14-2.04-4.93-2.04h0ZM36.13,51.4c-1.78,0-3.57.68-4.93,2.04-2.72,2.72-2.72,7.13,0,9.85l36.87,36.86h-18.01c-3.85,0-6.96,3.12-6.96,6.96s3.12,6.96,6.96,6.96h34.82c3.85,0,6.96-3.12,6.96-6.96v-34.82c0-3.85-3.12-6.96-6.96-6.96s-6.96,3.12-6.96,6.96v18.01l-36.86-36.87c-1.36-1.36-3.14-2.04-4.93-2.04h0ZM161.49,141.94h-34.82c-3.85,0-6.96,3.12-6.96,6.96v34.82c0,3.85,3.12,6.96,6.96,6.96s6.96-3.12,6.96-6.96v-18.01l36.86,36.87c1.36,1.36,3.14,2.04,4.93,2.04s3.57-.68,4.93-2.04c2.72-2.72,2.72-7.13,0-9.85l-36.87-36.86h18.01c3.85,0,6.96-3.12,6.96-6.96s-3.12-6.96-6.96-6.96h0ZM84.88,141.94h-34.82c-3.85,0-6.96,3.12-6.96,6.96s3.12,6.96,6.96,6.96h18.01l-36.87,36.86c-2.72,2.72-2.72,7.13,0,9.85,1.36,1.36,3.14,2.04,4.93,2.04s3.57-.68,4.93-2.04l36.86-36.87v18.01c0,3.85,3.12,6.96,6.96,6.96s6.96-3.12,6.96-6.96v-34.82c0-3.85-3.12-6.96-6.96-6.96h0Z"/>
    </g>
  </g>
</svg>