<?xml version="1.0" encoding="UTF-8"?>
<svg id="Layer_2" data-name="Layer 2" xmlns="http://www.w3.org/2000/svg" xmlns:xlink="http://www.w3.org/1999/xlink" viewBox="0 0 215.83 239.05">
  <defs>
    <style>
      .cls-1 {
        fill: #6d6e7a;
      }

      .cls-1, .cls-2, .cls-3 {
        stroke-width: 0px;
      }

      .cls-2 {
        filter: url(#drop-shadow-1);
      }

      .cls-2, .cls-3 {
        fill: #b4b4bc;
      }
    </style>
    <filter id="drop-shadow-1" filterUnits="userSpaceOnUse">
      <feOffset dx="0" dy="0"/>
      <feGaussianBlur result="blur" stdDeviation="2"/>
      <feFlood flood-color="#000" flood-opacity=".75"/>
      <feComposite in2="blur" operator="in"/>
      <feComposite in="SourceGraphic"/>
    </filter>
  </defs>
  <g id="Layer_1-2" data-name="Layer 1">
    <path class="cls-1" d="M11.18,26.28h193.47c4.48,0,8.12,3.64,8.12,8.12v193.47c0,4.48-3.64,8.12-8.12,8.12H11.18c-4.48,0-8.12-3.64-8.12-8.12V34.4c0-4.48,3.64-8.12,8.12-8.12Z"/>
    <path class="cls-3" d="M204.65,29.34c2.79,0,5.06,2.27,5.06,5.06v193.47c0,2.79-2.27,5.06-5.06,5.06H11.18c-2.79,0-5.06-2.27-5.06-5.06V34.4c0-2.79,2.27-5.06,5.06-5.06h193.47M204.65,23.22H11.18c-6.17,0-11.18,5.01-11.18,11.18v193.47c0,6.17,5.01,11.18,11.18,11.18h193.47c6.17,0,11.18-5.01,11.18-11.18V34.4c0-6.17-5.01-11.18-11.18-11.18h0Z"/>
    <path class="cls-3" d="M105.73,1.11l-29.85,40.8c-1.31,1.8-.03,4.32,2.18,4.32h59.71c2.22,0,3.5-2.52,2.18-4.32L110.11,1.11c-1.08-1.48-3.3-1.48-4.38,0Z"/>
    <rect class="cls-2" x="40.3" y="61.97" width="135.22" height="135.22" rx="5.28" ry="5.28"/>
  </g>
</svg>